<svg width="29" height="29" viewBox="0 0 29 29" fill="none" xmlns="http://www.w3.org/2000/svg">
<path fill-rule="evenodd" clip-rule="evenodd" d="M25.375 14.5C25.375 20.5061 20.5061 25.375 14.5 25.375C8.4939 25.375 3.625 20.5061 3.625 14.5C3.625 8.4939 8.4939 3.625 14.5 3.625C20.5061 3.625 25.375 8.4939 25.375 14.5ZM19.5699 18.1557C20.3124 17.1277 20.75 15.865 20.75 14.5C20.75 11.0482 17.9518 8.25 14.5 8.25C13.135 8.25 11.8723 8.68757 10.8443 9.43008L19.5699 18.1557ZM9.43008 10.8443L18.1557 19.5699C17.1277 20.3124 15.865 20.75 14.5 20.75C11.0482 20.75 8.25 17.9518 8.25 14.5C8.25 13.135 8.68757 11.8723 9.43008 10.8443ZM14.5 6.25C9.94365 6.25 6.25 9.94365 6.25 14.5C6.25 19.0563 9.94365 22.75 14.5 22.75C19.0563 22.75 22.75 19.0563 22.75 14.5C22.75 9.94365 19.0563 6.25 14.5 6.25Z" fill="#DD0909"/>
</svg>
