<svg width="132" height="100" viewBox="0 0 132 100" fill="none" xmlns="http://www.w3.org/2000/svg">
<g clip-path="url(#clip0_1305_1858)">
<path d="M82.0873 14.3892C87.7408 20.4713 93.3779 26.5698 99.0314 32.6519C98.7512 32.6684 98.4875 32.7014 98.2073 32.6849C80.7852 32.2893 80.8017 32.2893 80.8511 49.629C80.8841 62.6338 80.8511 75.6386 80.8511 88.495C86.8508 88.495 91.8944 88.495 99.0149 88.495C99.0149 69.5565 99.0149 51.096 99.0149 32.619C102.756 36.0638 106.663 39.3603 110.207 42.9865C113.388 46.2336 116.173 49.8598 119.14 53.3046C118.003 54.5408 116.866 55.7606 115.728 56.9967C117.706 57.4912 119.668 57.9692 120.821 58.2494C120.821 61.5624 120.821 64.6117 120.821 67.6775C108.723 84.9842 94.0207 97.5934 71.1593 97C64.6981 96.8352 58.1875 98.5659 51.7098 99.4724C40.9137 100.972 31.1725 99.6867 24.7113 89.484C29.5078 89.1708 34.3042 88.8576 39.3644 88.5445C39.3644 78.6055 39.3644 69.2104 39.3644 59.8647C36.6612 59.8647 34.4525 60.2603 32.4582 59.7988C24.5959 57.9363 22.9312 61.8921 23.2444 68.65C23.5575 75.4573 23.2773 82.2811 23.2609 89.0884C10.0912 85.5941 1.96532 60.8372 5.34425 47.239C9.06932 45.8545 13.0416 44.882 16.503 43.003C34.3866 33.2453 52.1219 23.2239 69.9726 13.4002C71.456 12.5926 73.2856 12.4278 76.2525 11.6201C74.4229 15.6089 73.401 17.8341 72.379 20.0757C72.7581 20.3889 73.1372 20.6856 73.5163 20.9987C76.3513 18.7901 79.2193 16.5814 82.0873 14.3892ZM68.8353 44.9315C61.7972 44.9315 56.5557 44.9315 50.0616 44.9315C50.0616 56.4198 49.8803 67.2654 50.111 78.111C50.3418 88.528 54.4624 91.5113 64.8959 88.8576C66.4618 88.4621 68.6375 86.171 68.6704 84.7205C68.9671 71.5179 68.8353 58.2989 68.8353 44.9315Z" fill="#E1E2FE"/>
<path d="M82.0868 14.3894C79.2188 16.5981 76.3508 18.7903 73.4993 20.9989C73.1202 20.6858 72.7411 20.3891 72.362 20.0759C73.384 17.8343 74.4224 15.5926 76.2355 11.6203C73.2686 12.428 71.439 12.5928 69.9556 13.4004C52.1214 23.2241 34.3861 33.2455 16.5025 43.0032C13.0411 44.8822 9.0853 45.8547 5.34375 47.2393C5.6734 46.1844 6.00305 45.1295 6.33271 44.0746C7.10739 44.0416 8.03042 44.2724 8.62379 43.9427C25.8976 34.0861 43.1549 24.1801 60.4122 14.274C63.6757 12.395 66.9228 10.4665 70.1863 8.57104C69.9391 8.02712 69.6754 7.49967 69.4281 6.95575C67.4008 7.15354 65.3569 7.36781 63.3296 7.56561C63.4285 6.09865 63.2472 3.46144 63.6922 3.34606C69.1644 1.96152 74.6861 0.576978 80.2902 0.0330522C82.845 -0.214187 85.5976 1.41759 88.2513 2.19227C87.2953 5.07673 86.5206 8.0436 85.2844 10.7962C84.6581 12.1807 83.1746 13.2027 82.0868 14.3894ZM71.8016 8.09305C72.3126 7.89526 72.8071 7.69747 73.3016 7.49968C73.0378 7.17002 72.7906 6.6261 72.4939 6.59313C72.0654 6.54368 71.5874 6.85685 71.1258 7.02168C71.3401 7.36781 71.5709 7.71395 71.8016 8.09305Z" fill="#171412"/>
<path d="M63.3133 7.56591C65.3406 7.36812 67.3845 7.15385 69.4118 6.95605C69.6591 7.49998 69.9228 8.02742 70.17 8.57135C66.9065 10.4669 63.6759 12.3953 60.3959 14.2743C43.1386 24.1804 25.8977 34.0864 8.60749 43.943C8.01412 44.2892 7.09109 44.0419 6.31641 44.0749C9.11845 32.8338 17.4916 25.9111 26.9362 21.3289C38.5564 15.6754 51.1491 12.0492 63.3133 7.56591Z" fill="#E1E2FE"/>
<path d="M23.294 89.089C23.3105 82.2652 23.5907 75.4414 23.2775 68.6506C22.9643 61.8762 24.6291 57.9369 32.4913 59.7994C34.4857 60.2774 36.6944 59.8654 39.3975 59.8654C39.3975 69.211 39.3975 78.6061 39.3975 88.5451C34.3373 88.8748 29.5409 89.1879 24.7445 89.4846C24.1841 89.567 23.7061 89.4352 23.294 89.089ZM28.6673 63.6728C28.6673 71.6504 28.6673 79.15 28.6673 87.1606C31.5188 86.8804 33.7769 86.6661 36.035 86.4518C36.035 78.194 36.035 70.612 36.035 62.6015C33.266 62.997 30.9419 63.3432 28.6673 63.6728Z" fill="#171412"/>
<path d="M9.21752 18.8065C9.21752 17.2736 9.21752 15.5429 9.21752 13.5321C6.59678 13.153 4.15736 12.8233 0.250977 12.2629C5.70672 8.70265 9.86034 5.98301 13.6513 3.49414C16.2556 5.17537 19.4367 7.23569 21.9586 8.86747C18.3818 11.653 14.0799 15.0155 9.21752 18.8065Z" fill="#171412"/>
<path d="M120.822 67.6943C120.822 64.6286 120.822 61.5793 120.822 58.2663C119.668 57.9861 117.706 57.4916 115.729 57.0136C116.866 55.7774 118.003 54.5577 119.14 53.3215C122.14 51.1787 125.14 49.036 127.827 47.124C129.063 48.9041 130.777 51.3765 131.75 52.7776C129.442 56.3378 127.25 59.9145 124.843 63.3429C123.706 64.9582 122.173 66.2603 120.822 67.6943Z" fill="#171412"/>
<path d="M121.959 15.6589C118.448 14.4886 115.036 13.3513 111.789 12.2634C114.558 8.78561 117.789 4.74737 121.102 0.59375C123.294 2.4398 126.261 4.94516 129.112 7.35162C127.019 9.77456 124.25 13.0052 121.959 15.6589Z" fill="#272727"/>
<path d="M68.8355 44.9315C68.8355 58.2989 68.9509 71.5015 68.6707 84.7041C68.6378 86.1545 66.4621 88.4456 64.8962 88.8412C54.4627 91.4949 50.3421 88.5115 50.1113 78.0945C49.8805 67.249 50.0619 56.4034 50.0619 44.915C56.556 44.9315 61.7975 44.9315 68.8355 44.9315ZM54.8418 48.3599C54.8418 61.5295 54.8418 73.9244 54.8418 86.4842C58.1383 86.4842 60.9569 86.4842 64.0556 86.4842C64.0556 73.908 64.0556 61.7768 64.0556 49.0522C60.9239 48.8214 58.1383 48.6071 54.8418 48.3599Z" fill="#171412"/>
<path d="M99.0152 32.6354C99.0152 51.0959 99.0152 69.5729 99.0152 88.5114C91.8948 88.5114 86.8346 88.5114 80.8514 88.5114C80.8514 75.6385 80.8679 62.6337 80.8514 49.6454C80.8184 32.2893 80.802 32.2893 98.2076 32.7013C98.4713 32.6848 98.7515 32.6519 99.0152 32.6354ZM93.5101 86.6819C93.5101 70.1004 93.5101 53.832 93.5101 37.3659C90.3289 37.2011 87.6752 37.0692 84.8896 36.9209C84.8896 53.4529 84.8896 69.9191 84.8896 86.6654C87.9554 86.6819 90.5926 86.6819 93.5101 86.6819Z" fill="#171412"/>
<path d="M71.8016 8.09304C71.5709 7.73042 71.3401 7.36781 71.1094 7.02167C71.5709 6.85684 72.0489 6.54367 72.4774 6.59312C72.7741 6.62609 73.0214 7.1865 73.2851 7.49967C72.8071 7.68098 72.3126 7.87877 71.8016 8.09304Z" fill="#E1E2FE"/>
<path d="M28.667 63.672C30.9416 63.3423 33.2656 62.9962 36.0347 62.6006C36.0347 70.6111 36.0347 78.1931 36.0347 86.4509C33.7766 86.6652 31.535 86.8795 28.667 87.1597C28.667 79.1326 28.667 71.6331 28.667 63.672Z" fill="#E1E2FE"/>
<path d="M54.8418 48.3604C58.1548 48.6076 60.9404 48.8219 64.0556 49.0691C64.0556 61.7937 64.0556 73.9249 64.0556 86.5011C60.9568 86.5011 58.1383 86.5011 54.8418 86.5011C54.8418 73.9084 54.8418 61.53 54.8418 48.3604Z" fill="#E1E2FE"/>
<path d="M93.5101 86.682C90.5926 86.682 87.9554 86.682 84.8896 86.682C84.8896 69.9357 84.8896 53.4696 84.8896 36.9375C87.6752 37.0858 90.3289 37.2177 93.5101 37.3825C93.5101 53.8322 93.5101 70.1005 93.5101 86.682Z" fill="#E1E2FE"/>
</g>
<defs>
<clipPath id="clip0_1305_1858">
<rect width="131.498" height="100" fill="white" transform="translate(0.250977)"/>
</clipPath>
</defs>
</svg>
