<svg width="183" height="159" viewBox="0 0 183 159" fill="none" xmlns="http://www.w3.org/2000/svg">
<path d="M175.228 107.4C157.68 143.377 110.937 163.532 70.401 158.096C63.805 157.211 45.7218 154.576 29.7116 142.143C-1.10903 118.21 -7.70026 70.8194 17.1619 37.422C35.257 13.1145 67.6946 -0.664588 98.5166 0.0246809C105.156 0.17312 130.599 1.08811 152.96 17.143C156.244 19.5012 163.488 25.1047 170.017 33.9945C185.347 54.8694 186.664 83.9526 175.228 107.4Z" fill="url(#paint0_linear_1603_832)"/>
<path d="M8.54211 4.61519C8.37295 3.98804 9.38606 3.57123 10.0064 4.00928C16.3061 8.45744 31.4426 21.7777 27.6702 45.0559C22.9374 74.2619 31.0288 84.9189 41.1007 91.4195C41.1007 91.4195 27.2687 88.3625 18.5662 77.5487C-2.80024 50.9983 11.5504 15.7657 8.54211 4.61519Z" fill="#BDD0FB"/>
<path d="M13.3357 13.7373C14.1238 16.9886 14.8262 20.25 15.369 23.5259C15.9346 26.7991 16.368 30.0838 16.6646 33.3739C16.9443 36.6645 17.1419 39.9586 17.1532 43.2541C17.1841 46.5494 17.0268 49.842 16.8535 53.1474C16.7048 56.4517 16.53 59.7797 16.8078 63.1313C17.081 66.4761 17.8895 69.8502 19.4941 73.0131C19.8951 73.8014 20.3169 74.5872 20.7961 75.3465C21.2567 76.1129 21.7626 76.8641 22.2862 77.6081C23.3434 79.0927 24.5335 80.5271 25.8597 81.8885C28.5217 84.6067 31.7323 87.018 35.2691 89.0588C35.6413 89.2735 36.1747 89.2208 36.4604 88.9409C36.7409 88.6661 36.6783 88.2744 36.3234 88.0569L36.3209 88.0554C35.4793 87.5408 34.6466 87.0195 33.8477 86.4721C33.4423 86.2032 33.0537 85.9213 32.6582 85.645C32.2771 85.3578 31.881 85.0816 31.512 84.7858C30.0102 83.6219 28.6189 82.3801 27.3566 81.0671C24.8176 78.4532 22.785 75.5406 21.2451 72.521C20.4976 71.0043 19.9 69.4487 19.4637 67.8639C19.029 66.2788 18.7556 64.6661 18.6044 63.0404C18.3015 59.7873 18.4384 56.4921 18.5555 53.1873C18.6669 49.8816 18.7487 46.5592 18.6485 43.2394C18.6044 41.5796 18.5206 39.9205 18.3973 38.2635C18.342 37.4348 18.2654 36.607 18.1908 35.7792C18.1056 34.9519 18.0143 34.1252 17.9142 33.2992C17.5052 29.9954 16.9624 26.7027 16.282 23.4274C15.5808 20.1546 14.7642 16.8969 13.7821 13.6684C13.754 13.576 13.6318 13.5184 13.5091 13.5395C13.3899 13.56 13.3142 13.6478 13.3357 13.7373Z" fill="white"/>
<path d="M24.8604 74.5234C24.088 75.2371 22.7296 75.0319 22.2649 74.1386C19.701 69.2099 13.899 54.7036 23.4812 37.9918C31.5729 23.8793 34.4203 15.5574 35.4123 11.7016C35.6221 10.8863 36.9053 10.778 37.2927 11.5425C41.566 19.9767 52.8497 48.6653 24.8604 74.5234Z" fill="#91B3FA"/>
<path d="M23.4571 74.0037C23.4297 74.008 23.4014 74.01 23.3724 74.0096C23.1296 74.0064 22.9358 73.8324 22.9395 73.621C22.9437 73.3813 23.4794 49.4243 33.7123 29.3593C33.8109 29.1662 34.0706 29.0791 34.2928 29.1648C34.5147 29.2507 34.6147 29.4768 34.5162 29.6702C24.3577 49.5891 23.823 73.3946 23.8187 73.6327C23.8155 73.8189 23.6601 73.972 23.4571 74.0037Z" fill="white"/>
<path d="M134.369 37.5189C131.919 33.7721 130.034 28.7334 133.884 24.962C140.838 18.1504 154.745 16.6368 158.222 27.2326C159.66 31.6157 158.644 35.0227 156.959 37.5111C155.397 39.8157 157.322 42.7202 160.395 42.7202H182.559V68.4708C182.559 70.796 179.559 72.1269 177.365 70.8012C162.497 61.8149 154.743 72.4146 154.727 77.185C154.709 82.4829 157.353 94.9711 166.914 94.5925C171.283 94.4198 174.927 93.1404 177.595 91.8019C179.804 90.6935 182.559 92.0433 182.559 94.2638V118.265H159.622C156.898 118.265 155.274 120.884 156.755 122.874C158.457 125.16 159.883 128.475 159.96 133.192C160.158 145.2 139.099 143.031 133.884 139.247C130.159 136.544 130.006 127.877 132.906 122.517C133.978 120.536 132.215 118.265 129.701 118.265H107.374V92.0006C107.374 90.086 104.986 88.9086 103.095 89.8868C99.2526 91.8751 93.3174 94.368 87.3823 94.5925C77.3866 94.9712 76.0827 85.132 75.648 77.5633C75.2642 70.8788 89.9 60.058 101.453 66.6549C103.346 67.7358 107.231 69.3174 107.231 67.3465V42.7202H130.925C133.993 42.7202 135.887 39.8407 134.369 37.5189Z" fill="url(#paint1_linear_1603_832)"/>
<path d="M146.653 142.62C145.486 142.62 144.277 142.553 143.041 142.417C139.062 141.98 135.446 140.878 133.603 139.541C129.583 136.624 129.642 127.652 132.509 122.353C132.94 121.557 132.869 120.665 132.317 119.906C131.743 119.118 130.765 118.648 129.701 118.648H107.374C107.132 118.648 106.935 118.476 106.935 118.265V92.0004C106.935 91.2426 106.484 90.5669 105.73 90.1934C104.973 89.818 104.073 89.8261 103.32 90.2157C99.3661 92.2616 93.3948 94.748 87.4018 94.9747C82.7936 95.1531 79.4673 93.209 77.5252 89.2069C75.8779 85.8119 75.43 81.4254 75.2093 77.582C74.9993 73.9289 78.8939 69.2591 84.4695 66.4781C90.3983 63.5214 96.6765 63.4692 101.695 66.3344C103.437 67.3296 105.791 68.1802 106.557 67.8215C106.621 67.7913 106.792 67.7108 106.792 67.3461V42.7199C106.792 42.5085 106.989 42.337 107.231 42.337H130.925C132.199 42.337 133.34 41.7668 133.977 40.8119C134.623 39.8458 134.626 38.6854 133.987 37.7079C130.487 32.3552 130.338 27.8596 133.556 24.7073C137.807 20.5436 144.561 18.3876 149.978 19.4627C154.222 20.3053 157.3 23.0272 158.645 27.1271C159.914 30.9933 159.474 34.5522 157.338 37.7054C156.689 38.6631 156.68 39.8125 157.315 40.7799C157.954 41.7549 159.106 42.337 160.395 42.337H182.56C182.803 42.337 182.999 42.5085 182.999 42.7199V68.4704C182.999 69.6964 182.257 70.7665 181.013 71.3333C179.769 71.8999 178.275 71.8164 177.115 71.1155C169.737 66.6561 164.583 67.3571 161.558 68.7297C157.211 70.7029 155.175 74.9421 155.167 77.1858C155.153 81.2863 156.666 88.6673 160.893 92.1948C162.602 93.6215 164.616 94.2972 166.894 94.2097C170.51 94.0668 174.036 93.145 177.376 91.4698C178.562 90.8743 179.973 90.8727 181.15 91.4646C182.308 92.0475 182.999 93.0938 182.999 94.2635V118.265C182.999 118.476 182.803 118.648 182.56 118.648H159.622C158.51 118.648 157.53 119.153 157.002 120.001C156.47 120.852 156.516 121.848 157.125 122.665C159.23 125.493 160.332 129.032 160.4 133.186C160.461 136.893 158.52 139.672 154.787 141.224C152.571 142.145 149.761 142.62 146.653 142.62ZM107.814 117.882H129.701C131.068 117.882 132.323 118.485 133.059 119.496C133.766 120.466 133.858 121.657 133.304 122.68C130.35 128.14 130.792 136.505 134.166 138.953C137.623 141.462 148.067 143.167 154.408 140.533C157.857 139.1 159.578 136.632 159.521 133.197C159.455 129.19 158.4 125.787 156.387 123.082C155.6 122.026 155.541 120.737 156.229 119.635C156.914 118.538 158.182 117.882 159.622 117.882H182.12V94.2637C182.12 93.3706 181.593 92.5722 180.71 92.1278C179.809 91.6743 178.727 91.6761 177.815 92.1336C174.352 93.8704 170.692 94.8262 166.934 94.9748C164.415 95.076 162.175 94.3254 160.284 92.7478C155.858 89.0537 154.273 81.4162 154.288 77.1837C154.296 74.6814 156.432 70.1934 161.152 68.0508C164.391 66.5803 169.878 65.8094 177.617 70.4865C178.52 71.0328 179.638 71.0954 180.605 70.655C181.554 70.2228 182.12 69.4062 182.12 68.4705V43.1029H160.395C158.786 43.1029 157.349 42.3764 156.551 41.1598C155.758 39.9506 155.769 38.514 156.58 37.3164C158.589 34.3513 158.999 30.9939 157.8 27.3378C156.193 22.4428 152.553 20.7595 149.782 20.2095C144.663 19.1918 138.26 21.2518 134.213 25.2163C132.16 27.2271 130.588 30.961 134.752 37.3293C135.547 38.5465 135.542 39.9923 134.738 41.197C133.941 42.3905 132.516 43.1029 130.925 43.1029H107.671V67.3462C107.671 68.0252 107.292 68.3458 106.975 68.4954C105.295 69.2851 101.378 67.0697 101.212 66.9749C96.4808 64.2726 90.5376 64.3339 84.9066 67.1428C79.6878 69.7457 75.8965 74.2172 76.0874 77.5439C76.3044 81.3204 76.7411 85.6239 78.3352 88.9089C80.1445 92.6372 83.0948 94.3709 87.3636 94.2098C93.1739 93.9899 99.0036 91.5585 102.871 89.5572C103.899 89.0255 105.13 89.0149 106.165 89.5279C107.198 90.0393 107.814 90.9636 107.814 92.0004V117.882Z" fill="#FCFCFC"/>
<path d="M22.8386 90.7204C20.231 92.2441 16.7899 93.7261 12.9108 94.0638C4.32165 94.8118 0.88618 86.585 0.456542 79.4799C0.027296 72.3751 7.32781 65.644 13.7696 66.3921C16.8038 66.7442 20.1235 68.4237 22.787 70.102C24.938 71.4576 27.9415 70.1245 27.9415 67.8124V42.2931H57.591C60.062 42.2931 61.6998 40.0714 60.6672 38.1164C58.3408 33.7137 55.7278 27.0237 59.3722 24.1362C65.0356 19.6489 80.3348 19.6489 82.9115 26.3798C84.3542 30.1488 82.3942 34.6832 80.3899 37.9441C79.1812 39.9101 80.8123 42.2828 83.3731 42.2828H108.679V65.9164C108.679 68.4375 105.404 70.0041 103.043 68.5451C92.0963 61.7803 80.1417 68.9161 79.0464 76.8625C77.7581 86.211 84.6293 94.0638 91.93 93.3161C95.6372 92.9362 99.8979 91.1102 103.194 89.4045C105.615 88.1518 108.679 89.6562 108.679 92.1085V118.213H79.532C76.197 118.213 73.9663 115.183 75.4119 112.566C77.1347 109.448 84.1946 105.619 83.7705 102.665C82.9116 96.6816 67.6125 95.2012 59.3722 96.3154C53.0828 97.1655 56.2093 105.732 59.7838 112.597C61.1541 115.229 58.9718 118.213 55.6538 118.213H27.9415V93.0446C27.9415 90.7599 25.0175 89.4475 22.8386 90.7204Z" fill="url(#paint2_linear_1603_832)"/>
<path d="M108.679 118.596H79.5324C77.8002 118.596 76.2149 117.832 75.2917 116.554C74.3801 115.291 74.2771 113.738 75.0158 112.401C75.7563 111.061 77.4256 109.607 79.0399 108.201C81.2609 106.267 83.5577 104.267 83.3346 102.712C83.1693 101.561 82.3958 100.525 81.035 99.6314C77.9344 97.5952 68.7052 95.4416 59.4399 96.6941C58.1884 96.8633 57.3253 97.3559 56.8012 98.2001C55.3671 100.51 56.537 105.434 60.1844 112.44C60.8934 113.801 60.7637 115.361 59.8373 116.612C58.9179 117.854 57.3543 118.596 55.6542 118.596H27.9419C27.6991 118.596 27.5022 118.424 27.5022 118.213V93.0451C27.5022 92.13 26.9519 91.3282 26.0305 90.9002C25.0852 90.4614 23.9836 90.5129 23.084 91.0387C19.7157 93.0071 16.3076 94.1533 12.9549 94.4451C10.1843 94.6866 7.7621 94.0462 5.75015 92.5425C4.1934 91.3792 0.518457 87.7796 0.0179954 79.5004C-0.212149 75.6933 1.77874 71.6134 5.21323 68.8529C7.86645 66.7204 11.0075 65.6857 13.8284 66.0128C16.4465 66.3168 19.5477 67.5883 23.0455 69.7921C23.9198 70.3431 25.0145 70.4176 25.9731 69.9912C26.9306 69.5654 27.5023 68.751 27.5023 67.8127V42.2935C27.5023 42.0821 27.6992 41.9106 27.942 41.9106H57.5915C58.6023 41.9106 59.5304 41.4695 60.0743 40.7304C60.6174 39.9922 60.69 39.0748 60.2682 38.2766C57.6573 33.3348 55.331 26.8213 59.0768 23.8533C62.6663 21.0089 70.1081 19.8331 76.0178 21.177C79.8079 22.0386 82.4046 23.8434 83.3293 26.259C84.8335 30.1887 82.7722 34.8809 80.7781 38.125C80.2839 38.9288 80.3094 39.8744 80.8461 40.6547C81.3825 41.4345 82.3276 41.9002 83.3738 41.9002H108.679C108.922 41.9002 109.119 42.0716 109.119 42.283V65.9166C109.119 67.256 108.263 68.4729 106.886 69.0924C105.539 69.6983 104.007 69.6106 102.789 68.8576C98.1504 65.991 92.9361 65.4386 88.1067 67.302C83.4235 69.1086 80.0388 72.8795 79.4834 76.9084C78.7807 82.0071 80.5822 87.128 84.185 90.2724C86.4674 92.2643 89.1982 93.2112 91.8793 92.9362C95.6204 92.5528 99.9755 90.6252 102.97 89.0756C104.249 88.414 105.782 88.4003 107.071 89.039C108.353 89.6742 109.119 90.8219 109.119 92.1088V118.213C109.119 118.424 108.922 118.596 108.679 118.596ZM65.0113 95.5971C70.7776 95.5971 77.7371 96.5064 81.5647 99.0199C83.1223 100.043 84.0114 101.253 84.2071 102.618C84.4837 104.544 82.0323 106.678 79.6616 108.743C78.0995 110.103 76.4838 111.51 75.8085 112.733C75.2013 113.832 75.2866 115.108 76.0363 116.146C76.7976 117.201 78.1044 117.83 79.5324 117.83H108.239V92.1089C108.239 91.1009 107.64 90.202 106.636 89.7045C105.625 89.2039 104.423 89.2145 103.419 89.7341C100.351 91.3214 95.8764 93.2976 91.9816 93.6968C89.0317 93.9996 86.0388 92.9751 83.5621 90.8131C79.7736 87.5064 77.8759 82.1435 78.6101 76.8172C79.2016 72.5255 82.7892 68.5159 87.7502 66.6019C92.875 64.6254 98.3967 65.2045 103.298 68.2332C104.243 68.8173 105.433 68.884 106.482 68.4122C107.566 67.9246 108.239 66.9684 108.239 65.9166V42.666H83.3734C82.0151 42.666 80.788 42.0612 80.0913 41.0483C79.3943 40.0349 79.3609 38.807 80.0023 37.7637C81.915 34.6522 83.9 30.1724 82.4947 26.5013C81.6672 24.3397 79.288 22.7119 75.7955 21.918C70.1434 20.6336 63.0604 21.7323 59.6682 24.4198C58.1535 25.62 56.3209 28.9746 61.0669 37.9566C61.6144 38.9932 61.5199 40.1846 60.8145 41.1435C60.1081 42.1035 58.9033 42.6764 57.5913 42.6764H28.3816V67.8128C28.3816 69.0263 27.6119 70.1224 26.3729 70.6733C25.1328 71.225 23.66 71.1252 22.5296 70.4125C19.1988 68.3139 16.1498 67.055 13.7119 66.7719C11.1512 66.4739 8.27 67.4382 5.80982 69.4155C2.56211 72.0259 0.679472 75.8747 0.896052 79.4601C1.231 84.9991 3.25965 89.6724 6.32293 91.9616C8.14524 93.3233 10.3472 93.9038 12.8673 93.6831C16.0746 93.404 19.347 92.3005 22.5941 90.4028C23.7508 89.7271 25.226 89.6589 26.4442 90.2246C27.6574 90.7879 28.3816 91.8423 28.3816 93.0451V117.83H55.6542C57.054 117.83 58.3415 117.22 59.0983 116.197C59.862 115.166 59.9687 113.879 59.3836 112.756C55.5644 105.421 54.4353 100.401 56.0277 97.836C56.6821 96.7816 57.7848 96.1431 59.3051 95.9374C60.8951 95.7224 62.871 95.5971 65.0113 95.5971Z" fill="#FCFCFC"/>
<g opacity="0.3">
<path d="M138.733 26.1485C138.46 26.193 138.187 26.0515 138.106 25.8147C137.929 25.2968 137.775 24.7644 137.649 24.2325C137.587 23.9737 137.778 23.7206 138.075 23.6671C138.079 23.6665 138.083 23.666 138.086 23.6654C138.38 23.6176 138.664 23.783 138.725 24.0388C138.845 24.5441 138.991 25.0498 139.159 25.5418C139.245 25.7949 139.08 26.0614 138.789 26.1368C138.77 26.1416 138.751 26.1455 138.733 26.1485ZM137.888 22.0464C137.867 22.0498 137.845 22.0522 137.823 22.0535C137.52 22.0712 137.259 21.8719 137.238 21.6083C137.196 21.0669 137.181 20.5185 137.192 19.9785C137.197 19.7143 137.447 19.5047 137.751 19.5086C138.054 19.5134 138.296 19.7315 138.29 19.9955C138.28 20.5088 138.295 21.0297 138.334 21.5443C138.353 21.7887 138.158 22.0024 137.888 22.0464ZM138.102 17.8842C138.041 17.894 137.978 17.8951 137.914 17.8864C137.615 17.8449 137.41 17.5998 137.458 17.3389C137.555 16.804 137.681 16.2662 137.831 15.7403C137.904 15.4838 138.202 15.3279 138.496 15.3912C138.791 15.4549 138.97 15.7144 138.897 15.9708C138.755 16.4701 138.636 16.9808 138.543 17.4888C138.506 17.6941 138.323 17.8481 138.102 17.8842ZM139.379 13.8674C139.279 13.8836 139.174 13.876 139.073 13.8408C138.792 13.7421 138.655 13.4634 138.769 13.2183C139.001 12.7157 139.262 12.2157 139.543 11.7324C139.68 11.4969 140.01 11.4025 140.281 11.5215C140.551 11.6408 140.66 11.9286 140.523 12.1644C140.256 12.6234 140.009 13.0982 139.788 13.576C139.715 13.7332 139.557 13.8384 139.379 13.8674ZM141.653 10.1995C141.513 10.2221 141.364 10.1982 141.239 10.1223C140.989 9.97161 140.927 9.67353 141.1 9.45655C141.454 9.01249 141.835 8.57518 142.232 8.15735C142.426 7.95366 142.772 7.92503 143.006 8.09357C143.24 8.262 143.272 8.56348 143.079 8.76717C142.701 9.16439 142.339 9.57995 142.003 10.002C141.917 10.1096 141.79 10.1772 141.653 10.1995ZM144.802 7.06115C144.621 7.09051 144.428 7.04059 144.295 6.91402C144.09 6.71907 144.105 6.41657 144.329 6.23809C144.788 5.87256 145.27 5.51952 145.763 5.18909C146.004 5.02787 146.349 5.06699 146.534 5.27636C146.719 5.48556 146.674 5.78602 146.434 5.94718C145.965 6.2612 145.507 6.59647 145.071 6.94383C144.993 7.00652 144.899 7.04531 144.802 7.06115ZM164.35 2.72008C164.275 2.73223 164.196 2.73104 164.118 2.71412C163.545 2.59107 162.958 2.48817 162.373 2.40844C162.073 2.3675 161.869 2.12275 161.916 1.86187C161.962 1.60083 162.244 1.42235 162.543 1.46329C163.159 1.54728 163.777 1.65557 164.381 1.78504C164.675 1.8483 164.855 2.10759 164.783 2.36403C164.73 2.55222 164.555 2.68669 164.35 2.72008ZM148.668 4.61009C148.444 4.64655 148.209 4.5583 148.09 4.37613C147.94 4.14638 148.032 3.85439 148.296 3.72378C148.837 3.45614 149.397 3.20577 149.962 2.97954C150.238 2.87034 150.564 2.97414 150.691 3.21429C150.818 3.45433 150.697 3.73837 150.421 3.84888C149.885 4.06358 149.352 4.3014 148.839 4.55552C148.784 4.58249 148.727 4.60061 148.668 4.61009ZM159.604 2.18521C159.568 2.19101 159.531 2.19396 159.494 2.19345C158.903 2.18522 158.304 2.19924 157.714 2.23473C157.411 2.25285 157.149 2.05393 157.128 1.79044C157.107 1.52689 157.335 1.29725 157.638 1.28022C158.259 1.24296 158.889 1.2282 159.511 1.23672C159.814 1.24092 160.056 1.45852 160.051 1.72264C160.047 1.95393 159.855 2.14427 159.604 2.18521ZM153.067 2.97261C152.795 3.01696 152.522 2.87602 152.44 2.63967C152.353 2.38658 152.518 2.11997 152.809 2.04393C153.404 1.88868 154.015 1.7537 154.625 1.64308C154.628 1.64228 154.632 1.64166 154.636 1.64104C154.929 1.59333 155.213 1.75824 155.275 2.01349C155.336 2.27221 155.146 2.52565 154.849 2.57954C154.27 2.68482 153.69 2.8131 153.124 2.96063C153.105 2.9654 153.086 2.96949 153.067 2.97261Z" fill="#91B3FA"/>
<path d="M167.996 3.81589C167.89 3.83321 167.777 3.82349 167.671 3.78187C167.412 3.68056 167.147 3.58249 166.883 3.48982C166.601 3.39135 166.465 3.11265 166.578 2.86761C166.691 2.62241 167.011 2.50322 167.293 2.60225C167.571 2.69953 167.849 2.80282 168.121 2.90929C168.398 3.0177 168.521 3.301 168.397 3.54178C168.32 3.69033 168.167 3.78806 167.996 3.81589Z" fill="#91B3FA"/>
</g>
<g opacity="0.3">
<path d="M179.374 14.5185C179.113 14.5609 178.849 14.4337 178.756 14.2093C178.661 13.9771 178.558 13.7427 178.451 13.5128C178.338 13.2679 178.473 12.989 178.754 12.8898C179.037 12.7902 179.356 12.9087 179.47 13.1535C179.582 13.3956 179.691 13.6424 179.791 13.8869C179.893 14.1356 179.745 14.4094 179.459 14.4985C179.431 14.5073 179.403 14.5139 179.374 14.5185Z" fill="#91B3FA"/>
<path d="M163.187 39.1211C162.939 39.1615 162.689 39.1985 162.437 39.2319C162.137 39.2715 161.857 39.0921 161.811 38.8309C161.765 38.5698 161.973 38.3246 162.271 38.2859C162.853 38.2087 163.429 38.1113 163.991 37.9947C164.287 37.9339 164.582 38.0922 164.653 38.3491C164.723 38.6063 164.541 38.8643 164.246 38.9254C163.898 38.9976 163.542 39.0634 163.187 39.1211ZM159.546 39.4407C159.516 39.4455 159.485 39.4483 159.453 39.4488C158.84 39.4571 158.22 39.4429 157.61 39.4065C157.307 39.3885 157.079 39.1601 157.1 38.8966C157.12 38.633 157.383 38.4332 157.685 38.4521C158.265 38.4867 158.854 38.5001 159.436 38.4923C159.739 38.4881 159.989 38.699 159.994 38.963C159.998 39.1996 159.805 39.3986 159.546 39.4407ZM167.005 38.1736C166.75 38.215 166.49 38.0945 166.392 37.8767C166.282 37.6304 166.422 37.3532 166.705 37.2573C167.246 37.0743 167.786 36.8684 168.308 36.6453C168.581 36.5294 168.91 36.6271 169.043 36.8644C169.177 37.1018 169.064 37.3884 168.792 37.5045C168.241 37.7394 167.673 37.9562 167.104 38.1491C167.071 38.1602 167.038 38.1682 167.005 38.1736ZM154.856 39.0523C154.788 39.0635 154.716 39.0632 154.643 39.0501C154.044 38.9411 153.442 38.8083 152.856 38.6557C152.565 38.58 152.4 38.3136 152.487 38.0605C152.574 37.8072 152.88 37.6633 153.171 37.7391C153.727 37.884 154.299 38.01 154.868 38.1136C155.165 38.1675 155.355 38.4211 155.293 38.6796C155.246 38.8751 155.069 39.0178 154.856 39.0523ZM171.176 36.2741C170.967 36.3081 170.745 36.2343 170.619 36.071C170.449 35.8519 170.516 35.5546 170.768 35.4069C171.249 35.1248 171.723 34.8207 172.177 34.5031C172.413 34.3376 172.759 34.3702 172.949 34.5764C173.139 34.7823 173.101 35.0833 172.865 35.2488C172.387 35.5832 171.888 35.9034 171.381 36.2005C171.317 36.2382 171.247 36.2625 171.176 36.2741ZM174.767 33.6236C174.6 33.6508 174.421 33.6104 174.288 33.501C174.068 33.3194 174.058 33.0166 174.267 32.8247C174.667 32.4565 175.053 32.0695 175.416 31.6743C175.605 31.4677 175.951 31.4341 176.188 31.5992C176.425 31.7642 176.464 32.0651 176.275 32.2716C175.893 32.6875 175.486 33.0949 175.065 33.4822C174.982 33.5584 174.877 33.6057 174.767 33.6236ZM177.61 30.3544C177.483 30.3751 177.347 30.357 177.227 30.2948C176.967 30.1595 176.882 29.8657 177.037 29.6389C177.336 29.2034 177.617 28.7524 177.872 28.298C178.005 28.0607 178.333 27.9622 178.606 28.0783C178.879 28.1944 178.992 28.4808 178.859 28.7183C178.59 29.1963 178.295 29.6712 177.981 30.1294C177.896 30.252 177.759 30.33 177.61 30.3544ZM179.565 26.6234C179.477 26.6377 179.384 26.6335 179.293 26.6075C179.005 26.525 178.848 26.2547 178.943 26.0037C179.125 25.5222 179.285 25.0286 179.42 24.5364C179.49 24.2794 179.786 24.1205 180.081 24.1815C180.376 24.2425 180.559 24.5004 180.488 24.7574C180.347 25.2758 180.178 25.7957 179.987 26.3025C179.922 26.4744 179.756 26.5924 179.565 26.6234ZM180.533 22.6081C180.484 22.6162 180.432 22.6183 180.38 22.6139C180.078 22.5888 179.856 22.355 179.885 22.0922C179.941 21.5889 179.972 21.077 179.978 20.5703C179.982 20.306 180.231 20.0944 180.534 20.0973C180.837 20.1002 181.081 20.3169 181.077 20.5811C181.07 21.1145 181.037 21.6535 180.979 22.1833C180.955 22.4005 180.768 22.5699 180.533 22.6081ZM180.464 18.5085C180.453 18.5103 180.442 18.5118 180.431 18.5131C180.13 18.5457 179.855 18.3596 179.818 18.0975C179.765 17.7274 179.698 17.3545 179.62 16.9885C179.591 16.8561 179.561 16.7241 179.529 16.593C179.467 16.3343 179.658 16.0807 179.954 16.0266C180.254 15.9667 180.543 16.1381 180.605 16.3966C180.638 16.5347 180.67 16.6733 180.7 16.8127C180.782 17.1976 180.852 17.5901 180.908 17.9793C180.944 18.2316 180.748 18.4624 180.464 18.5085Z" fill="#91B3FA"/>
<path d="M150.368 37.7687C150.261 37.7862 150.147 37.7761 150.04 37.7338C149.769 37.6264 149.496 37.5119 149.228 37.3935C148.957 37.2741 148.849 36.9862 148.986 36.7506C149.124 36.515 149.454 36.4205 149.725 36.5401C149.979 36.6525 150.239 36.7612 150.496 36.8632C150.772 36.9726 150.893 37.2564 150.768 37.4968C150.69 37.6443 150.538 37.7411 150.368 37.7687Z" fill="#91B3FA"/>
</g>
<path d="M149.926 32.197C150.01 32.2585 150.129 32.2671 150.223 32.2183L152.908 30.8257C154.208 31.4028 155.624 31.8037 157.11 31.9942L158.372 34.4818C158.416 34.5691 158.519 34.6223 158.628 34.6143L162.363 34.3409C162.473 34.3329 162.564 34.2654 162.591 34.173L163.358 31.5368C164.787 31.1329 166.105 30.532 167.276 29.7739L170.191 30.7565C170.293 30.791 170.409 30.7652 170.48 30.6924L172.899 28.1991C172.97 28.1262 172.979 28.0223 172.923 27.9404L171.324 25.6025C171.987 24.4703 172.447 23.2378 172.666 21.944L175.523 20.8452C175.623 20.8067 175.684 20.7171 175.675 20.622L175.361 17.3693C175.352 17.2742 175.275 17.1947 175.168 17.1713L172.141 16.5033C171.677 15.2594 170.987 14.1113 170.116 13.0913L171.245 10.5536C171.284 10.4647 171.255 10.3637 171.171 10.3021L168.308 8.19551C168.224 8.1339 168.105 8.12538 168.011 8.17421L165.326 9.56683C164.025 8.9896 162.61 8.58881 161.124 8.39829L159.862 5.91061C159.818 5.82339 159.715 5.77018 159.606 5.77813L155.87 6.05161C155.761 6.05956 155.67 6.12702 155.643 6.21947L154.876 8.85565C153.447 9.25951 152.128 9.86048 150.957 10.6186L148.043 9.63595C147.941 9.60148 147.825 9.62725 147.754 9.70011L145.335 12.1935C145.264 12.2663 145.254 12.3702 145.31 12.4522L146.91 14.7901C146.247 15.9223 145.786 17.1547 145.568 18.4485L142.711 19.5473C142.61 19.5858 142.549 19.6755 142.559 19.7706L142.873 23.0232C142.882 23.1183 142.959 23.1978 143.065 23.2212L146.093 23.8892C146.557 25.1331 147.247 26.2812 148.117 27.3012L146.989 29.8389C146.949 29.9279 146.979 30.0288 147.063 30.0904L149.926 32.197Z" fill="#91B3FA"/>
<path d="M159.807 23.4227C158.002 23.7166 156.168 22.8202 155.554 21.2637C154.878 19.5527 155.927 17.6824 157.892 17.0941C158.844 16.809 159.866 16.864 160.77 17.2485C161.675 17.633 162.353 18.3012 162.68 19.1301C163.356 20.8411 162.307 22.7114 160.342 23.2997C160.165 23.3526 159.986 23.3935 159.807 23.4227ZM158.592 17.7227C158.453 17.7454 158.314 17.7771 158.178 17.8179C156.671 18.2689 155.867 19.7031 156.385 21.0148C156.903 22.3265 158.55 23.0274 160.056 22.5759C161.563 22.1249 162.367 20.6907 161.849 19.379C161.598 18.7435 161.078 18.2312 160.385 17.9363C159.821 17.6968 159.197 17.6241 158.592 17.7227Z" fill="#BDD0FB"/>
<path d="M160.883 28.0679C160.573 28.1184 160.258 28.1556 159.939 28.1789C159.839 28.1863 159.738 28.1922 159.638 28.1968C159.142 28.2191 158.645 28.207 158.155 28.1609C158.148 28.1603 158.141 28.1596 158.135 28.159C158.116 28.1571 158.097 28.1553 158.078 28.1532C158.041 28.1495 158.004 28.1454 157.967 28.1414C157.87 28.1306 157.796 28.0664 157.779 27.987C157.775 27.9677 157.774 27.9475 157.777 27.927C157.793 27.8222 157.903 27.7486 158.023 27.7619C158.643 27.8316 159.275 27.8435 159.902 27.7974C163.019 27.5698 165.624 25.9502 166.981 23.7014C167.735 22.4506 168.103 21.005 167.957 19.4958C167.932 19.2311 167.891 18.9695 167.836 18.712C167.463 16.9789 166.427 15.4228 164.859 14.2696C163.058 12.9448 160.773 12.3098 158.424 12.4819C153.572 12.8374 149.961 16.5611 150.368 20.7835C150.394 21.0438 150.434 21.3021 150.489 21.5572C150.726 22.6627 151.239 23.7107 151.994 24.6244C152.014 24.648 152.026 24.6742 152.032 24.701C152.047 24.7715 152.016 24.8467 151.944 24.8914C151.846 24.9529 151.709 24.934 151.638 24.8479C150.845 23.8886 150.306 22.7883 150.057 21.6276C149.999 21.3598 149.957 21.0888 149.93 20.8155C149.502 16.3824 153.297 12.473 158.387 12.1003C160.853 11.9197 163.252 12.5863 165.142 13.9771C166.788 15.1878 167.877 16.8213 168.268 18.6409C168.326 18.9112 168.369 19.1858 168.395 19.4636C168.603 21.6111 167.837 23.7002 166.24 25.3463C164.85 26.7798 162.973 27.7277 160.883 28.0679Z" fill="#BDD0FB"/>
<g opacity="0.3">
<path d="M122.964 41.5433C122.82 41.5668 122.669 41.5065 122.6 41.3867C122.469 41.1631 122.344 40.933 122.229 40.7028C122.155 40.5532 122.233 40.3793 122.405 40.314C122.577 40.2482 122.777 40.3174 122.852 40.467C122.961 40.6864 123.08 40.9056 123.205 41.119C123.289 41.2643 123.223 41.4421 123.056 41.5163C123.026 41.5294 122.995 41.5383 122.964 41.5433Z" fill="#91B3FA"/>
<path d="M122 39.4311C121.831 39.4586 121.662 39.3707 121.612 39.2241C121.472 38.8098 121.355 38.3845 121.264 37.9602C121.244 37.8709 121.226 37.781 121.209 37.6908C121.179 37.5296 121.315 37.3821 121.489 37.3509C121.674 37.3243 121.848 37.4333 121.879 37.5941C121.895 37.6803 121.912 37.7662 121.931 37.8516C122.018 38.2564 122.129 38.662 122.263 39.0571C122.316 39.2137 122.213 39.3778 122.034 39.4241C122.022 39.4268 122.011 39.4292 122 39.4311ZM121.426 36.4042C121.41 36.4067 121.393 36.4086 121.377 36.4092C121.19 36.4159 121.032 36.2893 121.024 36.1262C120.998 35.6031 121.01 35.074 121.059 34.5539C121.074 34.3911 121.239 34.2704 121.424 34.2833C121.611 34.2966 121.75 34.4389 121.735 34.6017C121.689 35.098 121.678 35.6027 121.702 36.1015C121.709 36.2501 121.589 36.3776 121.426 36.4042ZM121.712 33.3465C121.669 33.3534 121.625 33.3532 121.58 33.3453C121.397 33.312 121.279 33.1553 121.317 32.9956C121.44 32.4839 121.601 31.9731 121.795 31.4779C121.856 31.3233 122.048 31.2413 122.226 31.2942C122.404 31.3469 122.498 31.515 122.438 31.6693C122.252 32.1416 122.099 32.6283 121.982 33.1164C121.953 33.2371 121.843 33.3252 121.712 33.3465ZM122.852 30.4435C122.783 30.4548 122.71 30.4474 122.642 30.4188C122.473 30.3473 122.403 30.1703 122.485 30.0237C122.749 29.5528 123.048 29.0923 123.375 28.6545C123.477 28.5178 123.688 28.4794 123.844 28.5681C124.002 28.657 124.046 28.84 123.944 28.977C123.632 29.3941 123.347 29.8336 123.095 30.2825C123.046 30.3699 122.954 30.4269 122.852 30.4435ZM124.773 27.8712C124.676 27.8869 124.573 27.8662 124.492 27.8069C124.348 27.702 124.33 27.5156 124.45 27.3907C124.837 26.9904 125.256 26.607 125.695 26.2514C125.832 26.1398 126.047 26.1469 126.174 26.2664C126.302 26.3859 126.294 26.573 126.157 26.684C125.738 27.0234 125.339 27.389 124.97 27.7711C124.917 27.8254 124.847 27.8591 124.773 27.8712ZM127.351 25.783C127.226 25.8033 127.093 25.7612 127.014 25.6656C126.904 25.5335 126.938 25.3489 127.09 25.2531C127.576 24.9466 128.09 24.6638 128.615 24.4127C128.78 24.3344 128.986 24.3867 129.076 24.5297C129.166 24.6726 129.106 24.8524 128.942 24.9307C128.441 25.1703 127.952 25.4398 127.488 25.732C127.446 25.7585 127.399 25.7752 127.351 25.783ZM130.437 24.3075C130.281 24.333 130.121 24.2595 130.06 24.1262C129.991 23.9745 130.076 23.8027 130.25 23.7424C130.806 23.55 131.384 23.3855 131.967 23.2533C132.149 23.2148 132.334 23.3072 132.381 23.4651C132.428 23.623 132.319 23.7842 132.138 23.8255C131.582 23.9512 131.031 24.1081 130.5 24.2916C130.48 24.2989 130.458 24.3041 130.437 24.3075ZM135.608 23.4276C135.589 23.4307 135.569 23.4326 135.548 23.4326C135.053 23.4365 134.55 23.4641 134.053 23.5146C133.977 23.5219 133.903 23.5298 133.83 23.5386C133.644 23.56 133.473 23.4466 133.448 23.2848C133.423 23.1227 133.554 22.9694 133.74 22.9527C133.818 22.9437 133.897 22.935 133.976 22.9274C134.496 22.8747 135.023 22.8458 135.542 22.8418C135.73 22.8403 135.883 22.9713 135.884 23.1345C135.886 23.2799 135.767 23.4018 135.608 23.4276Z" fill="#91B3FA"/>
</g>
<g opacity="0.3">
<path d="M138.557 48.1133C138.375 48.1429 138.199 48.0395 138.162 47.8808C138.126 47.721 138.245 47.5651 138.428 47.5331C138.982 47.4366 139.533 47.3099 140.066 47.1564C140.244 47.1069 140.436 47.1892 140.495 47.3443C140.554 47.4994 140.457 47.6663 140.279 47.7176C139.72 47.8783 139.142 48.0114 138.562 48.1125C138.56 48.1128 138.559 48.113 138.557 48.1133ZM136.838 48.3207C136.826 48.3227 136.814 48.324 136.801 48.3248C136.212 48.365 135.615 48.3742 135.025 48.3525C134.837 48.3454 134.692 48.2079 134.7 48.0449C134.708 47.8815 134.867 47.7555 135.053 47.7619C135.616 47.7827 136.187 47.7738 136.749 47.7357C136.935 47.7229 137.099 47.8446 137.113 48.0072C137.127 48.1595 137.006 48.2934 136.838 48.3207ZM141.847 47.1667C141.699 47.1908 141.546 47.1266 141.478 47.0025C141.398 46.8553 141.47 46.6792 141.64 46.6093C142.15 46.3989 142.65 46.1599 143.125 45.8984C143.284 45.8117 143.493 45.8526 143.593 45.9907C143.693 46.1286 143.646 46.3112 143.487 46.3983C142.989 46.6723 142.465 46.9229 141.93 47.1433C141.903 47.1545 141.875 47.1622 141.847 47.1667ZM133.374 48.1912C133.336 48.1974 133.297 48.198 133.256 48.1922C132.673 48.1078 132.09 47.9911 131.524 47.8452C131.344 47.799 131.241 47.6346 131.294 47.478C131.347 47.322 131.536 47.2326 131.716 47.2785C132.256 47.4174 132.812 47.5286 133.368 47.6093C133.552 47.6361 133.678 47.7884 133.647 47.9492C133.623 48.0751 133.51 48.169 133.374 48.1912ZM144.776 45.5559C144.658 45.5752 144.532 45.5391 144.451 45.4525C144.332 45.3259 144.354 45.1398 144.499 45.0366C144.935 44.7267 145.354 44.3902 145.744 44.036C145.874 43.918 146.089 43.9145 146.224 44.0275C146.359 44.1405 146.364 44.3277 146.234 44.4454C145.825 44.8164 145.386 45.1694 144.928 45.4945C144.883 45.5269 144.83 45.5472 144.776 45.5559ZM147.176 43.3802C147.086 43.3949 146.989 43.3778 146.91 43.3261C146.76 43.2281 146.73 43.0429 146.842 42.9124C147.181 42.5193 147.496 42.105 147.777 41.6811C147.871 41.5396 148.079 41.4914 148.241 41.5731C148.403 41.6547 148.459 41.8353 148.365 41.9765C148.07 42.4211 147.74 42.8554 147.385 43.2673C147.332 43.3287 147.257 43.3672 147.176 43.3802ZM148.909 40.7663C148.845 40.7766 148.778 40.7715 148.714 40.7476C148.541 40.6837 148.461 40.5101 148.534 40.3599C148.756 39.908 148.947 39.4401 149.103 38.9694C149.155 38.813 149.343 38.7222 149.523 38.7675C149.703 38.8128 149.807 38.9764 149.755 39.1333C149.591 39.6267 149.391 40.1175 149.159 40.5917C149.113 40.6862 149.017 40.7488 148.909 40.7663Z" fill="#91B3FA"/>
<path d="M130.035 47.3314C129.97 47.342 129.902 47.3363 129.837 47.3119C129.571 47.2112 129.307 47.103 129.052 46.9906C128.885 46.9168 128.818 46.739 128.903 46.5934C128.988 46.4484 129.192 46.3899 129.359 46.4634C129.602 46.5706 129.854 46.6737 130.108 46.77C130.28 46.8351 130.359 47.0092 130.284 47.1588C130.237 47.2521 130.142 47.314 130.035 47.3314Z" fill="#91B3FA"/>
</g>
<path d="M129.507 43.5343C129.563 43.5755 129.642 43.5813 129.705 43.5486L131.502 42.6167C132.372 43.0029 133.319 43.2712 134.313 43.3987L135.158 45.0632C135.187 45.1216 135.256 45.1572 135.329 45.1519L137.829 44.9689C137.902 44.9635 137.963 44.9184 137.981 44.8566L138.495 43.0926C139.451 42.8223 140.333 42.4203 141.117 41.9129L143.067 42.5705C143.135 42.5935 143.213 42.5763 143.26 42.5275L144.879 40.859C144.926 40.8103 144.933 40.7408 144.895 40.6859L143.825 39.1215C144.269 38.3639 144.577 37.5392 144.723 36.6734L146.635 35.9381C146.702 35.9123 146.743 35.8524 146.737 35.7888L146.527 33.6122C146.52 33.5486 146.469 33.4954 146.398 33.4797L144.372 33.0327C144.061 32.2004 143.6 31.432 143.017 30.7496L143.772 29.0515C143.799 28.9919 143.779 28.9244 143.723 28.8832L141.807 27.4735C141.751 27.4323 141.671 27.4266 141.608 27.4593L139.811 28.3912C138.941 28.005 137.994 27.7367 137 27.6093L136.155 25.9446C136.126 25.8863 136.057 25.8507 135.984 25.856L133.484 26.039C133.411 26.0443 133.35 26.0894 133.332 26.1513L132.819 27.9153C131.863 28.1855 130.981 28.5877 130.197 29.095L128.247 28.4374C128.178 28.4144 128.101 28.4316 128.053 28.4804L126.434 30.1488C126.387 30.1976 126.381 30.2671 126.418 30.3219L127.488 31.8863C127.045 32.6439 126.737 33.4686 126.59 34.3344L124.679 35.0697C124.612 35.0954 124.571 35.1554 124.577 35.2191L124.787 37.3956C124.793 37.4592 124.845 37.5124 124.916 37.5281L126.942 37.9751C127.252 38.8074 127.714 39.5757 128.297 40.2582L127.541 41.9563C127.515 42.0158 127.535 42.0834 127.591 42.1246L129.507 43.5343Z" fill="#91B3FA"/>
<path d="M136.123 37.7021C135.585 37.7897 135.031 37.7252 134.53 37.5123C133.914 37.2504 133.452 36.7952 133.23 36.2306C132.769 35.0655 133.484 33.7915 134.822 33.3905C136.163 32.9914 137.624 33.6122 138.084 34.7775C138.307 35.342 138.264 35.9484 137.963 36.4847C137.662 37.0212 137.14 37.4236 136.491 37.6176C136.37 37.6537 136.247 37.682 136.123 37.7021ZM135.311 33.8877C135.221 33.9023 135.132 33.9228 135.043 33.9493C134.058 34.2442 133.533 35.1814 133.871 36.0386C134.035 36.4536 134.375 36.7888 134.828 36.9812C135.281 37.1739 135.793 37.201 136.271 37.0587C136.747 36.9159 137.132 36.6199 137.353 36.2255C137.575 35.8307 137.606 35.3847 137.442 34.9693C137.134 34.1897 136.215 33.7404 135.311 33.8877Z" fill="#BDD0FB"/>
<path d="M136.867 40.9371C136.656 40.9715 136.441 40.9967 136.223 41.0129C135.789 41.0448 135.352 41.0382 134.921 40.9933C134.901 40.9912 134.882 40.989 134.863 40.9869C134.713 40.9701 134.599 40.8711 134.573 40.7485C134.566 40.7188 134.565 40.6875 134.57 40.656C134.594 40.4941 134.764 40.3807 134.95 40.4009C135.351 40.4462 135.761 40.4539 136.166 40.424H136.166C136.188 40.4224 136.211 40.4205 136.233 40.4187C137.191 40.3405 138.091 40.0573 138.869 39.6018C139.291 39.3546 139.678 39.0562 140.018 38.7117C140.021 38.7089 140.024 38.7061 140.027 38.7033C140.035 38.6945 140.044 38.6861 140.052 38.6774C141.037 37.6623 141.509 36.374 141.381 35.0499C141.364 34.8785 141.338 34.7093 141.302 34.5425C141.061 33.4205 140.39 32.4132 139.375 31.6664C138.209 30.8088 136.73 30.398 135.209 30.5094C133.689 30.6211 132.308 31.2411 131.323 32.2559C130.338 33.271 129.866 34.5593 129.994 35.8835C130.01 36.052 130.036 36.2192 130.072 36.3842C130.226 37.1001 130.558 37.7784 131.047 38.3699C131.077 38.4064 131.096 38.4466 131.105 38.4881C131.128 38.597 131.08 38.7132 130.97 38.7822C130.817 38.8772 130.606 38.8477 130.496 38.7149C129.949 38.0532 129.577 37.294 129.405 36.4935C129.365 36.3086 129.336 36.1216 129.318 35.9332C129.175 34.4515 129.703 33.0102 130.805 31.8745C131.907 30.7391 133.45 30.0441 135.152 29.9204C136.853 29.7958 138.509 30.2555 139.813 31.2153C140.948 32.0505 141.699 33.1775 141.969 34.4328C142.009 34.6191 142.039 34.8087 142.057 35.0003C142.334 37.8685 140.049 40.4191 136.867 40.9371Z" fill="#BDD0FB"/>
<path d="M80.6199 80.4513C80.6199 80.4513 79.5983 78.1099 78.4053 78.3243C77.2122 78.5388 75.907 79.3369 75.907 79.3369L73.9902 81.5941C73.9902 81.5941 79.3709 83.4398 81.2633 82.382C81.2633 82.382 86.7592 83.2089 93.6996 82.2173C92.6949 80.3703 92.0961 78.5213 91.7445 77.0859C88.2293 78.8185 84.4431 80.1126 80.6199 80.4513Z" fill="url(#paint3_linear_1603_832)"/>
<path d="M109.732 63.4688C109.732 63.4688 101.863 72.0986 91.7441 77.0863C92.0958 78.5216 92.6946 80.3707 93.6992 82.2176C98.9487 81.4676 105.024 79.6776 110.175 75.7001L109.732 63.4688Z" fill="url(#paint4_linear_1603_832)"/>
<path d="M119.547 101.719C118.008 95.3543 116.469 91.6695 111.316 79.6053C109.695 75.8089 108.222 71.9677 108.934 67.9647L109.733 63.469C109.733 63.469 119.747 60.5186 130.847 63.3448C130.847 63.3448 145.99 69.0731 135.704 97.3642C131.068 101.881 125.642 103.168 119.547 101.719Z" fill="url(#paint5_linear_1603_832)"/>
<path d="M111.438 57.7306L114.034 63.1623C114.198 63.5054 114.553 63.7498 114.973 63.8126C116.47 64.0362 120.091 64.3854 122.469 63.0239C122.752 62.8616 122.824 62.5263 122.631 62.284L117.833 56.2871L111.438 57.7306Z" fill="url(#paint6_linear_1603_832)"/>
<path d="M114.123 49.4202C114.014 49.5096 109.521 57.1928 109.521 57.1928L114.613 59.3334L120.114 52.6024C120.114 52.6024 115.948 47.9239 114.123 49.4202Z" fill="url(#paint7_linear_1603_832)"/>
<path d="M117.8 53.41L115.26 57.0967C115.221 57.1527 115.175 57.2033 115.12 57.2477C114.818 57.4927 113.783 58.2055 112.984 57.2351C112.302 56.408 111.662 55.656 110.977 55.3459C110.577 55.1648 110.084 55.3094 109.881 55.66C109.463 56.3822 108.652 57.8544 108.143 59.2505C108.015 59.6004 108.223 59.976 108.614 60.1139C109.645 60.4777 111.683 61.1356 113.491 61.3529C113.788 61.3886 114.083 61.2795 114.259 61.0686C115.037 60.1404 117.231 57.5465 117.979 56.8973C118.674 56.2941 119.958 56.5215 120.536 56.6662C120.756 56.7212 120.989 56.6947 121.185 56.5921C121.772 56.2843 122.796 55.5181 121.859 54.2206C121.626 53.898 121.745 53.4684 122.11 53.259C122.765 52.8838 123.476 52.1795 122.799 51.0389C122.113 49.8843 120.889 49.7806 120.055 49.8694C119.686 49.9086 119.312 49.7402 119.17 49.4409C119.107 49.3078 118.983 49.1943 118.751 49.1534C118.314 49.0762 118.027 48.7282 118.113 48.3471C118.26 47.6937 118.149 46.845 116.951 46.2714C114.754 45.2194 112.829 46.9334 112.34 48.3804C111.85 49.8274 114.307 50.8499 115.852 51.0206C116.988 51.146 117.61 52.2248 117.86 52.7887C117.951 52.9933 117.929 53.2217 117.8 53.41Z" fill="url(#paint8_linear_1603_832)"/>
<path d="M116.909 58.0011C116.909 58.0011 118.002 55.7619 119.253 55.8533C120.504 55.9447 121.488 57.0296 119.938 58.2492C118.01 59.7663 116.909 58.0011 116.909 58.0011Z" fill="url(#paint9_linear_1603_832)"/>
<path d="M118.561 157.812C120.979 157.994 125.177 158.289 128.486 158.416C130.475 158.492 131.62 158.323 132.279 158.093C132.278 158.158 132.276 158.219 132.273 158.276C132.258 158.579 131.975 158.821 131.623 158.838C125.37 159.142 120.398 158.944 118.628 158.85C118.261 158.83 118.043 158.484 118.231 158.212C118.324 158.076 118.438 157.943 118.561 157.812Z" fill="url(#paint10_linear_1603_832)"/>
<path d="M128.486 158.416C125.176 158.29 120.979 157.994 118.561 157.812C120.938 155.272 128.486 153.56 128.486 153.56H130.617C132.083 155.4 132.295 157.152 132.279 158.093C131.62 158.323 130.475 158.493 128.486 158.416Z" fill="url(#paint11_linear_1603_832)"/>
<path d="M130.976 150.529L130.776 153.966C130.755 154.339 130.435 154.651 130.006 154.705C129.581 154.758 129.01 154.764 128.405 154.589C128.033 154.481 127.757 154.208 127.688 153.875L126.999 150.529H130.976Z" fill="url(#paint12_linear_1603_832)"/>
<path d="M158.662 158.39C159.711 158.263 160.185 157.788 160.384 157.281C160.386 157.286 160.387 157.29 160.388 157.295C160.542 157.83 160.185 158.384 159.47 158.648C158.605 158.967 157.66 159.021 156.926 158.995C156.139 158.967 155.417 158.683 155.02 158.229L155.014 158.222C155.804 158.563 156.913 158.603 158.662 158.39Z" fill="url(#paint13_linear_1603_832)"/>
<path d="M153.717 150.507H155.475C158.152 150.46 159.834 155.377 160.384 157.281C160.185 157.789 159.711 158.263 158.662 158.39C156.913 158.603 155.804 158.563 155.014 158.222C153.567 156.565 152.85 154.137 152.505 152.72C152.113 151.109 153.717 150.507 153.717 150.507Z" fill="url(#paint14_linear_1603_832)"/>
<path d="M155.249 147.318L156.225 150.699C156.344 151.113 156.117 151.542 155.676 151.739C155.13 151.983 154.362 152.239 153.655 152.165C153.323 152.13 153.047 151.926 152.937 151.654L151.504 148.097L155.249 147.318Z" fill="url(#paint15_linear_1603_832)"/>
<path d="M156.413 148.294C155.198 149.232 151.248 149.356 151.248 149.356C137.019 119.619 131.087 111.433 131.087 111.433C133.142 122.657 131.53 151.467 131.53 151.467C129.182 152.369 126.155 151.467 126.155 151.467C125.964 133.092 122.993 113.347 119.161 100.714C128.778 100.525 134.005 98.6998 135.675 97.5498C143.691 108.803 156.413 148.294 156.413 148.294Z" fill="url(#paint16_linear_1603_832)"/>
<g filter="url(#filter0_d_1603_832)">
<path d="M116.739 109.024L118.509 118.608C118.817 120.279 120.595 121.438 122.534 121.232L149.019 118.419C150.315 118.281 151.298 117.339 151.324 116.208C151.38 113.732 151.268 109.325 150.075 105.31L116.739 109.024Z" fill="#D9D9D9"/>
<path d="M123.275 120.595C123.237 120.595 123.204 120.571 123.2 120.538C123.195 120.502 123.224 120.469 123.265 120.464L123.865 120.4C123.908 120.395 123.944 120.422 123.949 120.458C123.954 120.494 123.925 120.527 123.884 120.531L123.284 120.595C123.281 120.595 123.278 120.595 123.275 120.595ZM121.874 120.565C121.869 120.565 121.863 120.564 121.857 120.563C121.657 120.524 121.46 120.469 121.27 120.399C121.232 120.385 121.214 120.346 121.23 120.313C121.247 120.279 121.291 120.264 121.329 120.278C121.511 120.344 121.699 120.397 121.891 120.435C121.931 120.443 121.957 120.478 121.948 120.514C121.94 120.544 121.908 120.565 121.874 120.565ZM125.273 120.383C125.236 120.383 125.203 120.358 125.198 120.325C125.193 120.289 125.223 120.256 125.264 120.252L125.864 120.188C125.904 120.184 125.943 120.21 125.948 120.246C125.953 120.282 125.924 120.315 125.882 120.319L125.282 120.382C125.279 120.383 125.276 120.383 125.273 120.383ZM127.272 120.171C127.234 120.171 127.202 120.146 127.197 120.113C127.192 120.077 127.222 120.044 127.263 120.04L127.863 119.976C127.905 119.971 127.942 119.997 127.947 120.033C127.952 120.069 127.922 120.102 127.881 120.106L127.281 120.17C127.278 120.171 127.275 120.171 127.272 120.171ZM129.271 119.958C129.233 119.958 129.201 119.934 129.196 119.9C129.191 119.864 129.221 119.832 129.262 119.827L129.861 119.764C129.904 119.758 129.941 119.785 129.946 119.821C129.951 119.857 129.921 119.89 129.88 119.894L129.28 119.958C129.277 119.958 129.274 119.958 129.271 119.958ZM131.27 119.746C131.232 119.746 131.2 119.722 131.195 119.688C131.19 119.652 131.219 119.619 131.261 119.615L131.86 119.551C131.903 119.547 131.94 119.573 131.945 119.609C131.95 119.645 131.92 119.678 131.879 119.682L131.279 119.746C131.276 119.746 131.273 119.746 131.27 119.746ZM120.146 119.714C120.127 119.714 120.107 119.707 120.092 119.694C119.95 119.565 119.82 119.424 119.706 119.276C119.683 119.245 119.692 119.205 119.726 119.184C119.76 119.164 119.808 119.172 119.831 119.202C119.94 119.344 120.065 119.479 120.201 119.603C120.23 119.629 120.229 119.67 120.199 119.696C120.184 119.708 120.165 119.714 120.146 119.714ZM133.269 119.534C133.231 119.534 133.199 119.509 133.194 119.476C133.189 119.44 133.218 119.407 133.259 119.403L133.859 119.339C133.902 119.334 133.938 119.36 133.943 119.396C133.948 119.432 133.919 119.465 133.878 119.469L133.278 119.533C133.275 119.534 133.272 119.534 133.269 119.534ZM135.267 119.321C135.23 119.321 135.197 119.297 135.193 119.264C135.187 119.228 135.217 119.195 135.258 119.19L135.858 119.127C135.898 119.121 135.937 119.148 135.942 119.184C135.947 119.22 135.918 119.253 135.876 119.257L135.276 119.321C135.273 119.321 135.27 119.321 135.267 119.321ZM137.267 119.109C137.229 119.109 137.196 119.085 137.192 119.052C137.186 119.015 137.216 118.983 137.257 118.978L137.857 118.914C137.899 118.911 137.936 118.936 137.941 118.972C137.946 119.008 137.917 119.041 137.875 119.045L137.276 119.109C137.273 119.109 137.27 119.109 137.267 119.109ZM139.265 118.897C139.228 118.897 139.195 118.872 139.19 118.839C139.185 118.803 139.215 118.77 139.256 118.766L139.856 118.702C139.898 118.697 139.935 118.724 139.94 118.759C139.945 118.796 139.916 118.828 139.874 118.833L139.275 118.896C139.271 118.897 139.268 118.897 139.265 118.897ZM141.264 118.685C141.226 118.685 141.194 118.66 141.189 118.627C141.184 118.591 141.214 118.558 141.255 118.554L141.855 118.49C141.897 118.484 141.934 118.511 141.939 118.547C141.944 118.583 141.914 118.616 141.873 118.62L141.273 118.684C141.27 118.685 141.267 118.685 141.264 118.685ZM143.263 118.472C143.225 118.472 143.193 118.448 143.188 118.415C143.183 118.379 143.213 118.346 143.254 118.341L143.853 118.277C143.896 118.274 143.933 118.299 143.938 118.335C143.943 118.371 143.913 118.404 143.872 118.408L143.272 118.472C143.269 118.472 143.266 118.472 143.263 118.472ZM145.262 118.26C145.224 118.26 145.192 118.236 145.187 118.202C145.182 118.166 145.211 118.133 145.253 118.129L145.852 118.065C145.895 118.061 145.931 118.087 145.936 118.123C145.942 118.159 145.912 118.192 145.87 118.196L145.271 118.259C145.268 118.26 145.265 118.26 145.262 118.26ZM119.246 118.174C119.21 118.174 119.178 118.152 119.171 118.12L119.074 117.6C119.068 117.564 119.096 117.53 119.137 117.524C119.179 117.519 119.217 117.543 119.224 117.579L119.32 118.097C119.327 118.133 119.3 118.167 119.259 118.173C119.254 118.174 119.25 118.174 119.246 118.174ZM147.261 118.048C147.223 118.048 147.19 118.023 147.186 117.99C147.181 117.954 147.21 117.921 147.251 117.917L147.851 117.853C147.894 117.847 147.93 117.874 147.935 117.91C147.94 117.946 147.911 117.979 147.87 117.983L147.27 118.047C147.267 118.048 147.264 118.048 147.261 118.048ZM149.21 117.67C149.184 117.67 149.158 117.658 149.145 117.636C149.124 117.605 149.136 117.565 149.173 117.547C149.342 117.463 149.5 117.36 149.641 117.243C149.672 117.218 149.719 117.219 149.748 117.245C149.777 117.272 149.775 117.313 149.745 117.338C149.595 117.463 149.427 117.572 149.247 117.661C149.236 117.667 149.223 117.67 149.21 117.67ZM118.925 116.443C118.889 116.443 118.857 116.42 118.851 116.388L118.755 115.869C118.748 115.833 118.776 115.799 118.817 115.793C118.861 115.787 118.897 115.812 118.904 115.848L119 116.367C119.006 116.403 118.979 116.437 118.937 116.442C118.933 116.443 118.929 116.443 118.925 116.443ZM150.392 116.31C150.386 116.31 150.38 116.309 150.374 116.308C150.334 116.299 150.309 116.264 150.319 116.228C150.362 116.079 150.385 115.924 150.388 115.769L150.389 115.722C150.39 115.686 150.424 115.657 150.465 115.657C150.465 115.657 150.465 115.657 150.466 115.657C150.507 115.658 150.541 115.688 150.54 115.724L150.539 115.772C150.535 115.937 150.511 116.101 150.466 116.26C150.457 116.29 150.426 116.31 150.392 116.31ZM118.606 114.712C118.569 114.712 118.537 114.689 118.531 114.657L118.435 114.138C118.429 114.102 118.457 114.068 118.498 114.062C118.54 114.057 118.578 114.081 118.584 114.117L118.68 114.636C118.687 114.672 118.659 114.706 118.618 114.711C118.614 114.712 118.609 114.712 118.606 114.712ZM150.474 114.562C150.432 114.562 150.398 114.532 150.398 114.496C150.397 114.326 150.394 114.151 150.391 113.971C150.39 113.935 150.423 113.905 150.465 113.904C150.505 113.898 150.541 113.932 150.542 113.969C150.546 114.149 150.548 114.325 150.549 114.495C150.549 114.532 150.516 114.561 150.474 114.562C150.474 114.562 150.474 114.562 150.474 114.562ZM118.286 112.981C118.249 112.981 118.217 112.958 118.211 112.926L118.116 112.406C118.109 112.37 118.137 112.337 118.178 112.331C118.222 112.325 118.258 112.35 118.265 112.385L118.361 112.905C118.367 112.941 118.339 112.974 118.298 112.98C118.294 112.981 118.29 112.981 118.286 112.981ZM150.425 112.808C150.385 112.808 150.352 112.78 150.35 112.745C150.342 112.573 150.332 112.398 150.321 112.22C150.319 112.184 150.351 112.153 150.393 112.151C150.439 112.147 150.47 112.177 150.472 112.213C150.483 112.391 150.492 112.567 150.501 112.739C150.503 112.776 150.47 112.806 150.429 112.808C150.428 112.808 150.427 112.808 150.425 112.808ZM117.966 111.25C117.93 111.25 117.898 111.227 117.892 111.195L117.796 110.675C117.789 110.639 117.817 110.606 117.858 110.6C117.901 110.595 117.938 110.619 117.945 110.654L118.041 111.174C118.048 111.209 118.02 111.243 117.979 111.249C117.974 111.249 117.97 111.25 117.966 111.25ZM150.303 111.057C150.264 111.057 150.231 111.031 150.227 110.997C150.211 110.824 150.194 110.649 150.175 110.473C150.171 110.437 150.202 110.405 150.244 110.402C150.288 110.398 150.322 110.425 150.326 110.461C150.344 110.638 150.362 110.813 150.378 110.986C150.381 111.022 150.35 111.054 150.309 111.057C150.307 111.057 150.305 111.057 150.303 111.057ZM117.647 109.519C117.61 109.519 117.578 109.496 117.572 109.463L117.464 108.877L117.775 108.842C117.822 108.838 117.854 108.863 117.859 108.899C117.864 108.935 117.835 108.968 117.794 108.973L117.638 108.99L117.721 109.442C117.728 109.478 117.7 109.512 117.659 109.518C117.655 109.518 117.651 109.519 117.647 109.519ZM150.098 109.313C150.06 109.313 150.028 109.289 150.023 109.255C149.998 109.082 149.972 108.909 149.944 108.734C149.938 108.699 149.967 108.665 150.009 108.66C150.048 108.653 150.088 108.68 150.094 108.717C150.122 108.891 150.148 109.066 150.173 109.239C150.178 109.275 150.149 109.308 150.107 109.312C150.104 109.313 150.101 109.313 150.098 109.313ZM119.183 108.818C119.145 108.818 119.113 108.793 119.108 108.76C119.102 108.724 119.132 108.691 119.173 108.686L119.772 108.62C119.818 108.614 119.851 108.641 119.857 108.677C119.862 108.713 119.833 108.746 119.791 108.75L119.192 108.817C119.189 108.817 119.186 108.818 119.183 108.818ZM121.18 108.595C121.142 108.595 121.11 108.571 121.105 108.538C121.1 108.502 121.129 108.469 121.17 108.464L121.77 108.397C121.815 108.392 121.849 108.418 121.854 108.454C121.86 108.49 121.83 108.523 121.789 108.528L121.19 108.595C121.186 108.595 121.183 108.595 121.18 108.595ZM123.177 108.372C123.14 108.372 123.107 108.348 123.102 108.315C123.097 108.279 123.127 108.246 123.168 108.241L123.767 108.175C123.812 108.17 123.846 108.196 123.852 108.231C123.857 108.268 123.827 108.3 123.786 108.305L123.187 108.372C123.184 108.372 123.18 108.372 123.177 108.372ZM125.175 108.15C125.137 108.15 125.105 108.126 125.1 108.093C125.094 108.057 125.124 108.024 125.165 108.019L125.764 107.952C125.812 107.948 125.843 107.973 125.849 108.009C125.854 108.045 125.825 108.078 125.784 108.083L125.184 108.149C125.181 108.15 125.178 108.15 125.175 108.15ZM127.172 107.927C127.134 107.927 127.102 107.903 127.097 107.87C127.092 107.834 127.121 107.801 127.162 107.796L127.761 107.73C127.809 107.726 127.841 107.751 127.846 107.786C127.851 107.822 127.822 107.855 127.781 107.86L127.182 107.927C127.178 107.927 127.175 107.927 127.172 107.927ZM129.169 107.705C129.132 107.705 129.099 107.68 129.095 107.647C129.089 107.611 129.119 107.578 129.16 107.574L129.759 107.507C129.806 107.503 129.838 107.528 129.844 107.564C129.849 107.6 129.82 107.633 129.778 107.638L129.179 107.704C129.176 107.705 129.172 107.705 129.169 107.705ZM149.799 107.579C149.763 107.579 149.732 107.556 149.725 107.524C149.69 107.352 149.653 107.18 149.615 107.008C149.607 106.973 149.634 106.938 149.675 106.931C149.715 106.923 149.755 106.948 149.763 106.983C149.802 107.156 149.839 107.329 149.874 107.502C149.881 107.537 149.854 107.572 149.812 107.578C149.808 107.578 149.804 107.579 149.799 107.579ZM131.167 107.482C131.129 107.482 131.097 107.458 131.092 107.425C131.087 107.389 131.116 107.356 131.157 107.351L131.756 107.284C131.803 107.279 131.836 107.306 131.841 107.341C131.846 107.377 131.817 107.41 131.776 107.415L131.176 107.482C131.173 107.482 131.17 107.482 131.167 107.482ZM133.164 107.26C133.127 107.26 133.094 107.235 133.089 107.202C133.084 107.166 133.113 107.133 133.154 107.129L133.754 107.062C133.8 107.057 133.833 107.083 133.838 107.119C133.844 107.155 133.814 107.188 133.773 107.192L133.174 107.259C133.17 107.26 133.167 107.26 133.164 107.26ZM135.161 107.037C135.124 107.037 135.091 107.013 135.087 106.98C135.081 106.944 135.111 106.911 135.152 106.906L135.751 106.839C135.797 106.835 135.83 106.86 135.836 106.896C135.841 106.932 135.812 106.965 135.77 106.97L135.171 107.036C135.168 107.037 135.164 107.037 135.161 107.037ZM137.159 106.815C137.121 106.815 137.089 106.79 137.084 106.757C137.079 106.721 137.108 106.688 137.149 106.684L137.749 106.617C137.794 106.612 137.828 106.638 137.833 106.674C137.838 106.71 137.809 106.743 137.768 106.747L137.169 106.814C137.165 106.814 137.162 106.815 137.159 106.815ZM139.156 106.592C139.119 106.592 139.086 106.568 139.081 106.535C139.076 106.498 139.105 106.466 139.147 106.461L139.746 106.394C139.791 106.39 139.825 106.415 139.83 106.451C139.836 106.487 139.806 106.52 139.765 106.525L139.166 106.591C139.163 106.592 139.159 106.592 139.156 106.592ZM141.154 106.369C141.116 106.369 141.084 106.345 141.079 106.312C141.073 106.276 141.103 106.243 141.144 106.238L141.743 106.172C141.791 106.166 141.822 106.193 141.828 106.229C141.833 106.265 141.804 106.297 141.762 106.302L141.163 106.369C141.16 106.369 141.157 106.369 141.154 106.369ZM143.151 106.147C143.113 106.147 143.081 106.122 143.076 106.089C143.071 106.053 143.1 106.02 143.141 106.016L143.74 105.949C143.788 105.944 143.82 105.97 143.825 106.006C143.83 106.042 143.801 106.075 143.76 106.08L143.161 106.146C143.157 106.147 143.154 106.147 143.151 106.147ZM145.148 105.924C145.111 105.924 145.078 105.9 145.073 105.867C145.068 105.831 145.097 105.798 145.139 105.793L145.738 105.727C145.785 105.722 145.817 105.748 145.822 105.783C145.828 105.819 145.798 105.852 145.757 105.857L145.158 105.924C145.154 105.924 145.151 105.924 145.148 105.924ZM149.39 105.862C149.355 105.862 149.324 105.842 149.316 105.812C149.285 105.698 149.252 105.584 149.219 105.471L149.153 105.479C149.11 105.484 149.073 105.458 149.068 105.422C149.063 105.386 149.092 105.353 149.133 105.348L149.332 105.326L149.348 105.382C149.388 105.515 149.426 105.648 149.463 105.781C149.473 105.816 149.448 105.852 149.407 105.86C149.401 105.861 149.395 105.862 149.39 105.862ZM147.146 105.702C147.108 105.702 147.076 105.677 147.071 105.644C147.065 105.608 147.095 105.575 147.136 105.571L147.735 105.504C147.782 105.5 147.815 105.525 147.82 105.561C147.825 105.597 147.796 105.63 147.755 105.634L147.155 105.701C147.152 105.701 147.149 105.702 147.146 105.702Z" fill="white"/>
<path d="M123.469 101.174L123.439 100.423C123.503 100.236 123.671 100.089 123.887 100.034C124.695 99.8281 126.711 99.3994 127.789 99.9304L128.063 100.776L123.469 101.174Z" fill="#D9D9D9"/>
<path d="M125.939 100.172C125.755 100.234 125.565 100.255 125.369 100.235C125.131 100.212 124.942 100.05 124.912 99.8445L124.57 97.5205L125.929 97.3691L126.27 99.6914C126.3 99.8982 126.164 100.097 125.939 100.172Z" fill="#D9D9D9"/>
<path d="M136.624 99.7081L136.595 98.957C136.659 98.7698 136.827 98.6236 137.043 98.5685C137.851 98.3623 139.866 97.9335 140.945 98.4646L141.218 99.3106L136.624 99.7081Z" fill="#D9D9D9"/>
<path d="M139.095 98.7073C138.911 98.7688 138.72 98.7898 138.524 98.7703C138.286 98.7466 138.097 98.5851 138.067 98.3793L137.689 95.8105L139.048 95.6592L139.425 98.2263C139.455 98.433 139.319 98.6323 139.095 98.7073Z" fill="#D9D9D9"/>
<path d="M124.516 98.1058L139.061 96.0572C139.393 96.0105 139.645 95.7699 139.66 95.479C139.682 95.0719 139.665 94.468 139.468 93.8618C139.246 93.1724 138.475 92.7277 137.653 92.802C134.92 93.0492 127.983 93.8238 124.353 95.5668C123.969 95.7511 123.713 96.0855 123.665 96.4634C123.619 96.8239 123.622 97.2979 123.82 97.7588C123.925 98.0037 124.218 98.1478 124.516 98.1058Z" fill="#D9D9D9"/>
<path opacity="0.58" d="M124.158 97.5921C124.066 97.5921 123.984 97.5373 123.962 97.4564C123.956 97.4356 123.827 96.9426 123.906 96.445C123.97 96.0425 124.277 95.6903 124.708 95.526C125.497 95.225 127.012 94.6943 128.294 94.5195C128.404 94.5056 128.507 94.5699 128.524 94.6656C128.541 94.7614 128.466 94.8511 128.356 94.866C127.073 95.0408 125.491 95.6104 124.87 95.8471C124.566 95.9628 124.35 96.2101 124.305 96.4927C124.236 96.9271 124.353 97.3726 124.354 97.3771C124.379 97.4715 124.312 97.5657 124.204 97.5876C124.188 97.5906 124.173 97.5921 124.158 97.5921Z" fill="white"/>
<path d="M116.649 101.64C121.36 101.062 141.747 98.6003 147.769 98.5625C148.287 98.5593 148.751 98.8381 148.926 99.2611C149.479 100.601 150.655 103.727 151.038 106.913C151.09 107.346 150.78 107.751 150.302 107.887L137.093 111.625L132.285 112.161L117.496 111.271C116.974 111.24 116.544 110.907 116.452 110.461C116.124 108.873 115.426 105.14 115.568 102.672C115.598 102.147 116.049 101.714 116.649 101.64Z" fill="url(#paint17_linear_1603_832)"/>
<path d="M132.25 111.198C132.248 111.198 132.247 111.198 132.245 111.198L131.642 111.162C131.601 111.159 131.569 111.128 131.572 111.092C131.575 111.055 131.612 111.034 131.653 111.03L132.255 111.067C132.297 111.069 132.328 111.101 132.325 111.137C132.323 111.172 132.29 111.198 132.25 111.198ZM132.801 111.137C132.763 111.137 132.731 111.113 132.726 111.079C132.72 111.043 132.75 111.01 132.791 111.006L133.39 110.939C133.438 110.934 133.469 110.96 133.475 110.996C133.48 111.032 133.451 111.065 133.409 111.07L132.81 111.136C132.807 111.137 132.804 111.137 132.801 111.137ZM130.241 111.077C130.24 111.077 130.238 111.077 130.236 111.077L129.633 111.041C129.592 111.038 129.56 111.007 129.563 110.971C129.566 110.935 129.602 110.913 129.644 110.91L130.246 110.946C130.288 110.949 130.319 110.98 130.317 111.016C130.314 111.051 130.281 111.077 130.241 111.077ZM128.232 110.956C128.231 110.956 128.229 110.956 128.227 110.956L127.625 110.92C127.583 110.918 127.552 110.886 127.554 110.85C127.557 110.814 127.598 110.791 127.635 110.789L128.238 110.825C128.279 110.827 128.31 110.859 128.308 110.895C128.305 110.93 128.272 110.956 128.232 110.956ZM134.798 110.914C134.761 110.914 134.728 110.89 134.723 110.857C134.718 110.821 134.747 110.788 134.789 110.783L135.388 110.716C135.435 110.712 135.467 110.738 135.472 110.773C135.478 110.809 135.448 110.842 135.407 110.847L134.808 110.914C134.804 110.914 134.801 110.914 134.798 110.914ZM126.224 110.836C126.222 110.836 126.22 110.835 126.219 110.835L125.616 110.799C125.574 110.797 125.543 110.765 125.546 110.729C125.549 110.693 125.588 110.67 125.626 110.668L126.229 110.704C126.27 110.707 126.302 110.738 126.299 110.774C126.296 110.809 126.263 110.836 126.224 110.836ZM124.215 110.715C124.213 110.715 124.211 110.715 124.21 110.715L123.607 110.678C123.565 110.676 123.534 110.645 123.537 110.608C123.54 110.572 123.579 110.549 123.617 110.547L124.22 110.583C124.262 110.586 124.293 110.617 124.29 110.654C124.287 110.688 124.254 110.715 124.215 110.715ZM136.795 110.692C136.758 110.692 136.725 110.667 136.721 110.634C136.715 110.598 136.745 110.565 136.786 110.56L136.825 110.556L137.348 110.407C137.388 110.396 137.43 110.415 137.443 110.449C137.456 110.484 137.434 110.521 137.395 110.532L136.805 110.691C136.802 110.691 136.798 110.692 136.795 110.692ZM122.206 110.594C122.204 110.594 122.202 110.594 122.201 110.594L121.598 110.558C121.556 110.555 121.525 110.524 121.528 110.488C121.531 110.452 121.569 110.428 121.608 110.426L122.211 110.463C122.253 110.465 122.284 110.497 122.281 110.533C122.278 110.568 122.245 110.594 122.206 110.594ZM120.197 110.473C120.195 110.473 120.194 110.473 120.192 110.473L119.589 110.437C119.547 110.435 119.516 110.403 119.519 110.367C119.522 110.331 119.559 110.307 119.599 110.306L120.202 110.342C120.244 110.344 120.275 110.376 120.272 110.412C120.269 110.447 120.236 110.473 120.197 110.473ZM118.188 110.352C118.186 110.352 118.185 110.352 118.183 110.352L117.54 110.313L117.529 110.263C117.521 110.228 117.547 110.186 117.588 110.179C117.61 110.175 117.631 110.179 117.648 110.188L118.193 110.221C118.235 110.223 118.266 110.255 118.263 110.291C118.261 110.326 118.228 110.352 118.188 110.352ZM138.712 110.156C138.68 110.156 138.651 110.138 138.64 110.11C138.627 110.076 138.649 110.039 138.689 110.027L139.263 109.865C139.302 109.854 139.345 109.873 139.359 109.907C139.371 109.942 139.35 109.979 139.31 109.99L138.735 110.153C138.728 110.155 138.72 110.156 138.712 110.156ZM140.627 109.614C140.595 109.614 140.566 109.596 140.555 109.568C140.542 109.534 140.564 109.497 140.604 109.485L141.178 109.323C141.218 109.313 141.261 109.331 141.274 109.365C141.287 109.4 141.265 109.437 141.225 109.448L140.651 109.611C140.643 109.613 140.635 109.614 140.627 109.614ZM117.364 109.091C117.328 109.091 117.296 109.068 117.29 109.035C117.259 108.869 117.228 108.695 117.197 108.515C117.19 108.479 117.219 108.445 117.26 108.44C117.303 108.436 117.34 108.459 117.346 108.495C117.377 108.675 117.408 108.848 117.439 109.015C117.445 109.05 117.417 109.084 117.376 109.09C117.372 109.09 117.368 109.091 117.364 109.091ZM142.542 109.072C142.51 109.072 142.481 109.054 142.47 109.026C142.457 108.992 142.479 108.955 142.519 108.944L143.093 108.781C143.133 108.77 143.176 108.789 143.188 108.823C143.202 108.858 143.18 108.895 143.14 108.906L142.566 109.068C142.558 109.071 142.55 109.072 142.542 109.072ZM144.457 108.53C144.425 108.53 144.396 108.512 144.385 108.484C144.372 108.45 144.394 108.413 144.434 108.402L145.008 108.239C145.048 108.228 145.09 108.247 145.103 108.281C145.116 108.316 145.095 108.353 145.055 108.364L144.48 108.526C144.473 108.529 144.465 108.53 144.457 108.53ZM146.372 107.988C146.34 107.988 146.311 107.97 146.3 107.942C146.287 107.908 146.309 107.871 146.349 107.86L146.923 107.697C146.963 107.685 147.006 107.705 147.018 107.739C147.032 107.774 147.01 107.811 146.97 107.822L146.396 107.985C146.388 107.987 146.38 107.988 146.372 107.988ZM148.287 107.446C148.256 107.446 148.226 107.428 148.216 107.4C148.202 107.366 148.224 107.329 148.264 107.318L148.838 107.155C148.878 107.143 148.921 107.163 148.933 107.197C148.947 107.232 148.925 107.269 148.885 107.28L148.311 107.443C148.303 107.445 148.295 107.446 148.287 107.446ZM117.074 107.354C117.037 107.354 117.004 107.33 116.999 107.297C116.973 107.125 116.948 106.95 116.924 106.774C116.919 106.738 116.948 106.705 116.99 106.701C117.031 106.697 117.069 106.722 117.074 106.759C117.098 106.934 117.123 107.109 117.149 107.28C117.154 107.316 117.125 107.349 117.084 107.354C117.08 107.354 117.077 107.354 117.074 107.354ZM149.816 106.688C149.779 106.688 149.746 106.664 149.741 106.63C149.717 106.457 149.69 106.283 149.661 106.111C149.655 106.075 149.683 106.041 149.724 106.036C149.766 106.029 149.804 106.056 149.81 106.092C149.839 106.265 149.866 106.44 149.891 106.614C149.896 106.65 149.867 106.683 149.825 106.688C149.822 106.688 149.819 106.688 149.816 106.688ZM116.851 105.61C116.813 105.61 116.78 105.585 116.776 105.55C116.758 105.375 116.741 105.199 116.726 105.025C116.723 104.989 116.754 104.957 116.796 104.954C116.843 104.957 116.874 104.979 116.877 105.015C116.892 105.189 116.908 105.364 116.926 105.539C116.93 105.575 116.9 105.607 116.858 105.61C116.856 105.61 116.853 105.61 116.851 105.61ZM149.499 104.957C149.464 104.957 149.432 104.935 149.425 104.903C149.386 104.73 149.346 104.559 149.305 104.389C149.297 104.353 149.323 104.318 149.363 104.311C149.406 104.304 149.444 104.326 149.453 104.362C149.494 104.532 149.534 104.704 149.573 104.878C149.581 104.914 149.554 104.949 149.513 104.955C149.509 104.956 149.504 104.957 149.499 104.957ZM116.73 103.859C116.689 103.859 116.656 103.831 116.654 103.795C116.651 103.653 116.649 103.513 116.648 103.375L116.649 103.267C116.649 103.231 116.683 103.201 116.724 103.201C116.725 103.201 116.725 103.201 116.725 103.201C116.767 103.202 116.8 103.231 116.8 103.268L116.8 103.375C116.8 103.511 116.802 103.65 116.806 103.792C116.806 103.828 116.774 103.858 116.732 103.859C116.731 103.859 116.731 103.859 116.73 103.859ZM149.062 103.244C149.028 103.244 148.997 103.224 148.988 103.195C148.939 103.022 148.889 102.852 148.838 102.686C148.827 102.651 148.851 102.615 148.892 102.605C148.932 102.597 148.973 102.617 148.984 102.652C149.035 102.819 149.085 102.989 149.135 103.163C149.145 103.198 149.121 103.234 149.08 103.242C149.074 103.244 149.068 103.244 149.062 103.244ZM117.475 102.639C117.438 102.639 117.406 102.615 117.401 102.582C117.395 102.546 117.423 102.513 117.465 102.508L118.063 102.435C118.103 102.428 118.143 102.455 118.149 102.491C118.154 102.527 118.126 102.56 118.084 102.565L117.486 102.638C117.482 102.638 117.479 102.639 117.475 102.639ZM119.471 102.397C119.433 102.397 119.401 102.373 119.396 102.34C119.39 102.304 119.419 102.271 119.46 102.266L120.059 102.195C120.099 102.187 120.138 102.215 120.144 102.251C120.15 102.287 120.121 102.32 120.079 102.325L119.481 102.396C119.477 102.397 119.474 102.397 119.471 102.397ZM121.467 102.159C121.429 102.159 121.397 102.135 121.392 102.102C121.386 102.066 121.415 102.033 121.457 102.028L122.056 101.958C122.098 101.953 122.135 101.978 122.141 102.014C122.146 102.05 122.117 102.083 122.076 102.088L121.477 102.159C121.473 102.159 121.47 102.159 121.467 102.159ZM123.463 101.925C123.425 101.925 123.393 101.901 123.388 101.868C123.383 101.832 123.412 101.799 123.453 101.794L124.052 101.724C124.094 101.718 124.131 101.745 124.137 101.781C124.142 101.817 124.113 101.85 124.072 101.855L123.473 101.924C123.469 101.925 123.466 101.925 123.463 101.925ZM125.46 101.694C125.422 101.694 125.39 101.67 125.385 101.637C125.379 101.601 125.408 101.568 125.45 101.563L126.049 101.494C126.091 101.489 126.128 101.515 126.134 101.551C126.139 101.587 126.11 101.62 126.069 101.625L125.47 101.693C125.466 101.694 125.463 101.694 125.46 101.694ZM148.528 101.553C148.495 101.553 148.465 101.534 148.455 101.506C148.395 101.331 148.336 101.163 148.278 101.004C148.266 100.969 148.288 100.932 148.327 100.921C148.368 100.91 148.41 100.93 148.422 100.964C148.48 101.124 148.54 101.293 148.6 101.468C148.612 101.503 148.589 101.54 148.549 101.55C148.542 101.552 148.535 101.553 148.528 101.553ZM127.457 101.466C127.42 101.466 127.387 101.442 127.382 101.409C127.377 101.373 127.406 101.34 127.448 101.335L128.047 101.268C128.087 101.263 128.126 101.289 128.132 101.325C128.137 101.361 128.108 101.394 128.066 101.398L127.467 101.466C127.464 101.466 127.46 101.466 127.457 101.466ZM129.455 101.243C129.417 101.243 129.385 101.219 129.38 101.186C129.375 101.15 129.404 101.117 129.445 101.112L130.045 101.046C130.087 101.04 130.124 101.067 130.129 101.103C130.134 101.139 130.105 101.172 130.064 101.177L129.464 101.243C129.461 101.243 129.458 101.243 129.455 101.243ZM131.453 101.025C131.415 101.025 131.383 101 131.378 100.967C131.373 100.931 131.402 100.898 131.443 100.894L132.043 100.829C132.087 100.823 132.122 100.85 132.127 100.886C132.132 100.922 132.103 100.955 132.061 100.96L131.462 101.024C131.459 101.025 131.456 101.025 131.453 101.025ZM133.451 100.811C133.414 100.811 133.381 100.787 133.376 100.753C133.371 100.717 133.401 100.685 133.442 100.68L134.042 100.617C134.087 100.612 134.121 100.639 134.126 100.675C134.131 100.711 134.101 100.744 134.06 100.748L133.46 100.811C133.457 100.811 133.454 100.811 133.451 100.811ZM135.451 100.604C135.413 100.604 135.381 100.58 135.376 100.546C135.371 100.51 135.401 100.477 135.442 100.473L136.042 100.412C136.086 100.407 136.122 100.434 136.126 100.47C136.131 100.506 136.102 100.539 136.06 100.543L135.46 100.604C135.457 100.604 135.454 100.604 135.451 100.604ZM137.452 100.405C137.414 100.405 137.381 100.38 137.377 100.346C137.372 100.31 137.402 100.278 137.443 100.273L138.044 100.215C138.09 100.213 138.123 100.238 138.127 100.274C138.132 100.31 138.102 100.342 138.06 100.346L137.46 100.404C137.457 100.405 137.455 100.405 137.452 100.405ZM139.454 100.214C139.415 100.214 139.383 100.189 139.378 100.155C139.374 100.119 139.404 100.087 139.446 100.083L140.047 100.028C140.092 100.027 140.125 100.051 140.13 100.087C140.134 100.123 140.104 100.155 140.063 100.159L139.462 100.214C139.459 100.214 139.456 100.214 139.454 100.214ZM141.457 100.036C141.419 100.036 141.386 100.011 141.382 99.9767C141.378 99.9406 141.408 99.9084 141.45 99.9049L142.051 99.8544C142.094 99.8496 142.13 99.8776 142.134 99.9137C142.138 99.9497 142.107 99.982 142.066 99.9853L141.464 100.036C141.462 100.036 141.459 100.036 141.457 100.036ZM147.905 99.8843C147.874 99.8843 147.845 99.8673 147.834 99.8404L147.757 99.6521C147.669 99.6527 147.578 99.6538 147.483 99.6557C147.482 99.6557 147.482 99.6557 147.481 99.6557C147.44 99.6557 147.407 99.6271 147.406 99.5912C147.405 99.5549 147.438 99.5248 147.48 99.5241C147.583 99.5222 147.682 99.5209 147.776 99.5205C147.829 99.5205 147.874 99.5465 147.89 99.585L147.977 99.7967C147.99 99.8308 147.97 99.8684 147.93 99.8806C147.922 99.883 147.914 99.8843 147.905 99.8843ZM143.462 99.8746C143.424 99.8746 143.39 99.8488 143.387 99.8144C143.384 99.7784 143.414 99.7464 143.456 99.7434C143.662 99.7279 143.863 99.7131 144.058 99.6993C144.1 99.6972 144.136 99.7234 144.14 99.7596C144.143 99.7957 144.112 99.8275 144.07 99.8305C143.875 99.8444 143.675 99.8587 143.469 99.8743C143.467 99.8744 143.465 99.8746 143.462 99.8746ZM145.47 99.7395C145.431 99.7395 145.397 99.7127 145.395 99.678C145.392 99.6419 145.423 99.6105 145.465 99.6081C145.675 99.5959 145.876 99.5851 146.069 99.5755C146.114 99.5701 146.146 99.6014 146.148 99.6374C146.151 99.6737 146.119 99.7047 146.077 99.7068C145.885 99.7163 145.684 99.7272 145.475 99.7393C145.473 99.7392 145.472 99.7395 145.47 99.7395Z" fill="white"/>
<path d="M136.899 113.433L132.687 113.902C132.135 113.964 131.617 113.658 131.482 113.19L130.477 109.715C130.317 109.161 130.751 108.61 131.404 108.538L136.464 107.974C137.104 107.902 137.677 108.322 137.701 108.881L137.859 112.451C137.88 112.944 137.464 113.37 136.899 113.433Z" fill="url(#paint18_linear_1603_832)"/>
<path d="M136.286 112.841L133.08 113.198C132.659 113.245 132.266 113.012 132.163 112.656L131.397 110.011C131.276 109.59 131.606 109.17 132.103 109.115L135.955 108.686C136.442 108.631 136.877 108.951 136.896 109.376L137.016 112.093C137.032 112.469 136.715 112.793 136.286 112.841Z" fill="url(#paint19_linear_1603_832)"/>
</g>
<path d="M133.779 84.7144C134.773 88.2894 134.799 91.7867 134.648 93.0602C134.591 93.5403 134.148 93.9151 133.595 93.9489C132.967 93.9871 132.112 94.0374 131.348 94.0757C130.508 94.1178 129.576 93.6557 128.953 93.2694C128.635 93.0722 128.223 93.3793 128.401 93.6822C128.707 94.2037 129.239 94.6146 129.767 94.9638C130.084 95.1739 131.14 95.5471 131.066 95.9609C131.043 96.0914 130.952 96.205 130.855 96.3064C130.269 96.9192 129.381 97.2465 128.506 97.4806C128.396 97.5099 128.28 97.5412 128.202 97.6152C128.181 98.1084 129.923 98.6563 130.372 98.7862C131.046 98.9809 131.76 99.0634 132.468 98.9985C134.221 98.8377 135.84 97.7841 136.784 96.5138C139.308 93.1178 140.613 89.0169 141.09 85.8806C138.742 83.8367 135.197 84.3549 133.779 84.7144Z" fill="url(#paint20_linear_1603_832)"/>
<path d="M141.09 86.2027C142.963 73.8859 132.062 64.415 132.062 64.415L125.576 70.9987C130.5 76.3429 132.841 81.2401 133.91 85.0865C135.328 84.7269 138.742 84.1589 141.09 86.2027Z" fill="url(#paint21_linear_1603_832)"/>
<path d="M133.755 85.0264C133.575 85.0264 133.41 84.9192 133.365 84.759C132.048 80.0176 129.269 75.3236 125.109 70.8079C124.97 70.6572 124.998 70.437 125.171 70.3161C125.343 70.1955 125.597 70.2194 125.735 70.37C129.97 74.9667 132.8 79.7525 134.146 84.5944C134.199 84.7822 134.066 84.9711 133.85 85.0165C133.819 85.0234 133.787 85.0264 133.755 85.0264Z" fill="url(#paint22_linear_1603_832)"/>
<path d="M45.9182 158.044C45.9193 157.984 45.9147 157.924 45.897 157.862C44.854 154.261 39.6769 152.019 39.6769 152.019L37.6253 152.159C36.4458 155.332 36.5974 157.279 36.7868 158.146C36.7921 158.17 36.8005 158.193 36.8079 158.217C38.5002 158.348 41.9834 158.434 45.9182 158.044Z" fill="url(#paint23_linear_1603_832)"/>
<path d="M36.8076 158.217C36.899 158.507 37.1445 158.732 37.4586 158.79C39.8659 159.231 43.6921 158.876 45.2985 158.693C45.6529 158.653 45.912 158.367 45.9179 158.045C41.9831 158.435 38.5 158.349 36.8076 158.217Z" fill="url(#paint24_linear_1603_832)"/>
<path d="M36.7998 149.498L37.6687 153.14C37.7323 153.407 37.9678 153.607 38.2531 153.63C38.6022 153.659 39.0993 153.676 39.5992 153.612C40.0474 153.554 40.3596 153.158 40.2801 152.732L39.6761 149.498H36.7998Z" fill="url(#paint25_linear_1603_832)"/>
<path d="M54.8028 158.171C52.537 158.116 51.3651 157.884 50.7593 157.668C50.7579 157.864 50.7591 158.064 50.7665 158.271C50.7743 158.491 50.9622 158.668 51.1934 158.667L63.6336 158.597C64.0306 158.594 64.2626 158.194 64.0906 157.877C62.4595 157.994 58.3052 158.257 54.8028 158.171Z" fill="url(#paint26_linear_1603_832)"/>
<path d="M64.091 157.876C64.076 157.848 64.0631 157.82 64.0417 157.794C62.9431 156.457 60.1449 153.796 54.6157 152.641L51.9632 152.568C51.9632 152.568 50.7821 154.356 50.7598 157.667C51.3656 157.883 52.5375 158.115 54.8032 158.17C58.3056 158.256 62.4598 157.993 64.091 157.876Z" fill="url(#paint27_linear_1603_832)"/>
<path d="M51.3525 149.176C51.3944 149.346 51.9463 151.938 52.1601 152.943C52.2109 153.181 52.4246 153.357 52.6788 153.369C53.1329 153.391 53.8655 153.394 54.4955 153.245C54.8353 153.164 55.0636 152.863 55.0394 152.528L54.7426 148.429L51.3525 149.176Z" fill="url(#paint28_linear_1603_832)"/>
<path d="M49.3427 101.326C49.3427 101.326 52.9916 123.158 55.6248 149.138C55.6739 149.622 55.2311 150.043 54.6852 150.144C53.8808 150.291 52.6983 150.466 51.7194 150.442C51.1968 150.43 50.76 150.092 50.6721 149.643C49.7751 145.063 43.3739 120.478 41.6939 115.067C41.6939 115.067 39.7641 138.051 40.381 149.975C40.3964 150.272 40.147 150.529 39.8084 150.563C39.2948 150.615 38.4732 150.654 37.4274 150.557C37.0305 150.52 36.7103 150.259 36.6535 149.915C36.0145 146.038 32.3368 122.962 32.4931 106.339C32.502 105.401 33.7563 97.6992 33.7563 97.6992L49.3427 101.326Z" fill="url(#paint29_linear_1603_832)"/>
<path d="M33.2083 102.584C32.8331 102.467 32.5716 102.171 32.5308 101.826C32.0456 97.7272 29.6961 72.311 44.5285 61.8558C44.5285 61.8558 45.3791 59.918 52.3708 64.6815C59.3624 69.445 55.6191 74.4379 53.9453 81.3247C51.9197 89.6581 48.3657 96.4699 49.9382 101.598C50.0467 101.952 49.833 102.324 49.4383 102.45C44.0071 104.193 38.5969 104.251 33.2083 102.584Z" fill="#D9D9D9"/>
<path d="M50.3141 54.2412C50.3094 54.6029 44.3867 61.9281 44.3867 61.9281C44.3867 61.9281 45.4498 63.7512 50.525 65.2314L54.9059 57.3883L50.3141 54.2412Z" fill="url(#paint30_linear_1603_832)"/>
<path d="M54.9776 50.0439C54.9776 50.0439 57.0851 54.2593 57.2266 56.4718C57.3681 58.6843 57.9156 60.12 54.9776 60.5655C52.0397 61.0111 49.5646 59.7366 48.2239 57.5327C48.2239 57.5327 46.123 54.1367 46.5943 52.746C47.0655 51.3552 54.9776 50.0439 54.9776 50.0439Z" fill="url(#paint31_linear_1603_832)"/>
<path d="M49.2276 55.948L49.3948 55.8839C49.6077 55.8021 49.6989 55.5815 49.5919 55.4015C49.1777 54.7045 48.37 53.1072 49.4133 52.7346C50.7579 52.2544 56.0843 51.3087 57.2334 49.6629C58.3379 48.0813 57.3593 46.0397 55.8886 45.459C55.7902 45.4202 55.6741 45.451 55.6237 45.5342L55.5011 45.7361C55.4172 45.8744 55.1827 45.8534 55.1328 45.7032C55.0849 45.559 54.8647 45.5311 54.7733 45.6583C54.42 46.1507 53.4664 46.9489 50.9161 47.3587C47.2916 47.9412 44.8952 49.2184 44.8356 51.3992C44.8318 51.5377 44.6625 51.6148 44.5266 51.5427C44.2591 51.4007 43.8308 51.3341 43.2584 51.7531C42.2629 52.4819 42.6703 54.3724 44.8524 55.9276C44.9561 56.0015 44.9552 56.1424 44.843 56.206C44.4474 56.4302 43.8577 56.9638 45.3857 57.675C46.9662 58.4107 48.1464 58.3503 48.6009 58.285C48.714 58.2688 48.7868 58.1735 48.7621 58.076L48.2771 56.1593C48.2496 56.0508 48.3445 55.948 48.472 55.948H49.2276Z" fill="url(#paint32_linear_1603_832)"/>
<path d="M49.3184 56.3525C49.3184 56.3525 48.5144 53.6598 47.128 54.4148C45.7415 55.1697 47.8475 57.4319 48.9621 57.5326L49.3184 56.3525Z" fill="url(#paint33_linear_1603_832)"/>
<path d="M54.6201 66.8906L55.0285 76.4403C56.1883 76.7878 57.2926 77.0582 58.3441 77.26C59.0019 75.4162 60.4501 73.1532 61.636 71.4705C57.2788 70.1294 54.6201 66.8906 54.6201 66.8906Z" fill="#D9D9D9"/>
<path d="M76.3735 66.7285C70.3966 72.3477 65.5588 72.6784 61.6357 71.4709C60.4497 73.1535 59.0015 75.4166 58.3438 77.2604C74.3051 80.3245 78.0637 67.5476 78.0637 67.5476L76.3735 66.7285Z" fill="url(#paint34_linear_1603_832)"/>
<path d="M77.5859 66.1318C77.5859 66.1318 78.2744 65.488 79.5487 65.6903C80.823 65.8926 81.9572 66.2781 82.7511 65.6903C83.545 65.1025 83.8242 65.8914 83.8242 65.8914L81.4467 67.4651L77.5859 66.1318Z" fill="url(#paint35_linear_1603_832)"/>
<path d="M76.1641 67.2319C76.1641 67.2319 76.6358 65.5143 78.0575 65.7497C79.4792 65.9851 82.7067 67.5134 83.5385 67.2319C84.3702 66.9504 85.4338 66.2765 85.9795 66.5147L85.0184 67.5553C85.0184 67.5553 87.4893 66.314 87.9147 67.0767L83.8031 69.0913C83.8031 69.0913 77.7879 68.5669 76.1641 67.2319Z" fill="url(#paint36_linear_1603_832)"/>
<path d="M47.9854 79.3909C47.9854 79.3909 59.2223 87.5855 71.3563 84.0098C72.1089 83.788 72.9318 83.8362 73.6344 84.1593L77.1228 85.7635C78.5871 86.4368 80.4003 85.9948 81.2499 84.7573C81.7345 84.0514 82.1481 83.2451 82.2304 82.4727L75.4045 80.0665L75.9078 79.3377C75.9078 79.3377 72.5751 79.0919 71.7027 81.1716C71.7027 81.1716 65.355 83.4707 54.6498 73.2178C54.6498 73.2178 49.7919 76.8145 47.9854 79.3909Z" fill="url(#paint37_linear_1603_832)"/>
<path d="M47.3802 79.306C47.3433 79.306 47.3056 79.2968 47.2728 79.2772C42.5413 76.4937 40.3155 72.0008 40.2936 71.9557C40.2522 71.8702 40.2979 71.7721 40.3955 71.7361C40.4935 71.6998 40.6061 71.7394 40.6477 71.8248C40.6692 71.8689 42.8537 76.2731 47.488 78.9997C47.5761 79.0514 47.5992 79.1554 47.5396 79.2323C47.5027 79.2801 47.442 79.306 47.3802 79.306Z" fill="url(#paint38_linear_1603_832)"/>
<path d="M54.428 73.0786C54.3649 73.0786 54.3029 73.0514 54.2662 73.0017C54.2519 72.9824 52.8064 71.0232 50.0533 66.7306C49.2067 65.4106 48.0941 64.5747 46.7463 64.2463C44.5144 63.7032 42.3633 64.7452 42.3421 64.7557C42.2495 64.8002 42.1325 64.7733 42.0798 64.6929C42.0274 64.6124 42.0596 64.5103 42.152 64.4645C42.2448 64.4187 44.4572 63.3408 46.8464 63.9231C48.2981 64.2758 49.4902 65.1653 50.3892 66.567C53.1354 70.8488 54.5753 72.8011 54.5896 72.8204C54.6471 72.8979 54.6214 73.0016 54.5322 73.0518C54.4997 73.0701 54.4637 73.0786 54.428 73.0786Z" fill="url(#paint39_linear_1603_832)"/>
<defs>
<filter id="filter0_d_1603_832" x="111.549" y="92.7939" width="43.7861" height="36.4619" filterUnits="userSpaceOnUse" color-interpolation-filters="sRGB">
<feFlood flood-opacity="0" result="BackgroundImageFix"/>
<feColorMatrix in="SourceAlpha" type="matrix" values="0 0 0 0 0 0 0 0 0 0 0 0 0 0 0 0 0 0 127 0" result="hardAlpha"/>
<feOffset dy="4"/>
<feGaussianBlur stdDeviation="2"/>
<feComposite in2="hardAlpha" operator="out"/>
<feColorMatrix type="matrix" values="0 0 0 0 0 0 0 0 0 0 0 0 0 0 0 0 0 0 0.25 0"/>
<feBlend mode="normal" in2="BackgroundImageFix" result="effect1_dropShadow_1603_832"/>
<feBlend mode="normal" in="SourceGraphic" in2="effect1_dropShadow_1603_832" result="shape"/>
</filter>
<linearGradient id="paint0_linear_1603_832" x1="198.303" y1="161.125" x2="79.0214" y2="41.2613" gradientUnits="userSpaceOnUse">
<stop stop-color="#DAE3FE"/>
<stop offset="1" stop-color="#E9EFFD"/>
</linearGradient>
<linearGradient id="paint1_linear_1603_832" x1="221.299" y1="334.001" x2="103.384" y2="-123.617" gradientUnits="userSpaceOnUse">
<stop stop-color="#190482"/>
<stop offset="1" stop-color="#190482"/>
</linearGradient>
<linearGradient id="paint2_linear_1603_832" x1="115.886" y1="242.679" x2="-0.632768" y2="-209.521" gradientUnits="userSpaceOnUse">
<stop stop-color="#4F52FF"/>
<stop offset="1" stop-color="#4042E2"/>
</linearGradient>
<linearGradient id="paint3_linear_1603_832" x1="74.4575" y1="83.755" x2="76.511" y2="82.9375" gradientUnits="userSpaceOnUse">
<stop stop-color="#FEBBBA"/>
<stop offset="1" stop-color="#FF928E"/>
</linearGradient>
<linearGradient id="paint4_linear_1603_832" x1="89.5734" y1="87.2003" x2="115.934" y2="54.2007" gradientUnits="userSpaceOnUse">
<stop stop-color="#09005D"/>
<stop offset="1" stop-color="#1A0F91"/>
</linearGradient>
<linearGradient id="paint5_linear_1603_832" x1="103.692" y1="98.4776" x2="130.052" y2="65.4781" gradientUnits="userSpaceOnUse">
<stop stop-color="#09005D"/>
<stop offset="1" stop-color="#1A0F91"/>
</linearGradient>
<linearGradient id="paint6_linear_1603_832" x1="119.614" y1="66.7139" x2="117.159" y2="58.2533" gradientUnits="userSpaceOnUse">
<stop stop-color="#FEBBBA"/>
<stop offset="1" stop-color="#FF928E"/>
</linearGradient>
<linearGradient id="paint7_linear_1603_832" x1="110.708" y1="52.6005" x2="121.519" y2="57.9989" gradientUnits="userSpaceOnUse">
<stop stop-color="#FEBBBA"/>
<stop offset="1" stop-color="#FF928E"/>
</linearGradient>
<linearGradient id="paint8_linear_1603_832" x1="118.921" y1="58.5271" x2="110.966" y2="48.8215" gradientUnits="userSpaceOnUse">
<stop stop-color="#09005D"/>
<stop offset="1" stop-color="#1A0F91"/>
</linearGradient>
<linearGradient id="paint9_linear_1603_832" x1="109.999" y1="54.0182" x2="120.811" y2="59.4165" gradientUnits="userSpaceOnUse">
<stop stop-color="#FEBBBA"/>
<stop offset="1" stop-color="#FF928E"/>
</linearGradient>
<linearGradient id="paint10_linear_1603_832" x1="132.279" y1="158.406" x2="118.162" y2="158.406" gradientUnits="userSpaceOnUse">
<stop stop-color="#4F52FF"/>
<stop offset="1" stop-color="#4042E2"/>
</linearGradient>
<linearGradient id="paint11_linear_1603_832" x1="166.354" y1="146.905" x2="116.433" y2="163.246" gradientUnits="userSpaceOnUse">
<stop stop-color="#09005D"/>
<stop offset="1" stop-color="#1A0F91"/>
</linearGradient>
<linearGradient id="paint12_linear_1603_832" x1="130.976" y1="152.633" x2="126.999" y2="152.633" gradientUnits="userSpaceOnUse">
<stop stop-color="#FEBBBA"/>
<stop offset="1" stop-color="#FF928E"/>
</linearGradient>
<linearGradient id="paint13_linear_1603_832" x1="160.424" y1="158.141" x2="155.014" y2="158.141" gradientUnits="userSpaceOnUse">
<stop stop-color="#4F52FF"/>
<stop offset="1" stop-color="#4042E2"/>
</linearGradient>
<linearGradient id="paint14_linear_1603_832" x1="137.857" y1="144.327" x2="166.95" y2="166.083" gradientUnits="userSpaceOnUse">
<stop stop-color="#09005D"/>
<stop offset="1" stop-color="#1A0F91"/>
</linearGradient>
<linearGradient id="paint15_linear_1603_832" x1="156.256" y1="149.748" x2="151.504" y2="149.748" gradientUnits="userSpaceOnUse">
<stop stop-color="#FEBBBA"/>
<stop offset="1" stop-color="#FF928E"/>
</linearGradient>
<linearGradient id="paint16_linear_1603_832" x1="156.926" y1="155.823" x2="96.9634" y2="60.6155" gradientUnits="userSpaceOnUse">
<stop stop-color="#09005D"/>
<stop offset="1" stop-color="#1A0F91"/>
</linearGradient>
<linearGradient id="paint17_linear_1603_832" x1="133.445" y1="120.12" x2="133.334" y2="105.443" gradientUnits="userSpaceOnUse">
<stop stop-color="#FF928E"/>
<stop offset="1" stop-color="#FE7062"/>
</linearGradient>
<linearGradient id="paint18_linear_1603_832" x1="133.155" y1="115.008" x2="134.391" y2="108.429" gradientUnits="userSpaceOnUse">
<stop stop-color="#D9D9D9"/>
<stop offset="1" stop-color="#D9D9D9"/>
</linearGradient>
<linearGradient id="paint19_linear_1603_832" x1="131.576" y1="111.27" x2="137.059" y2="110.464" gradientUnits="userSpaceOnUse">
<stop stop-color="#FF928E"/>
<stop offset="1" stop-color="#FE7062"/>
</linearGradient>
<linearGradient id="paint20_linear_1603_832" x1="137.57" y1="86.7129" x2="128.968" y2="105.711" gradientUnits="userSpaceOnUse">
<stop stop-color="#FEBBBA"/>
<stop offset="1" stop-color="#FF928E"/>
</linearGradient>
<linearGradient id="paint21_linear_1603_832" x1="108.293" y1="102.153" x2="134.654" y2="69.1539" gradientUnits="userSpaceOnUse">
<stop stop-color="#09005D"/>
<stop offset="1" stop-color="#1A0F91"/>
</linearGradient>
<linearGradient id="paint22_linear_1603_832" x1="130.768" y1="73.589" x2="136.294" y2="48.5919" gradientUnits="userSpaceOnUse">
<stop stop-color="#09005D"/>
<stop offset="1" stop-color="#1A0F91"/>
</linearGradient>
<linearGradient id="paint23_linear_1603_832" x1="36.6572" y1="155.173" x2="45.9184" y2="155.173" gradientUnits="userSpaceOnUse">
<stop stop-color="#09005D"/>
<stop offset="1" stop-color="#1A0F91"/>
</linearGradient>
<linearGradient id="paint24_linear_1603_832" x1="59.8417" y1="145.66" x2="29.8027" y2="172.748" gradientUnits="userSpaceOnUse">
<stop stop-color="#4F52FF"/>
<stop offset="1" stop-color="#4042E2"/>
</linearGradient>
<linearGradient id="paint25_linear_1603_832" x1="39.232" y1="145.993" x2="37.8865" y2="159.478" gradientUnits="userSpaceOnUse">
<stop stop-color="#FEBBBA"/>
<stop offset="1" stop-color="#FF928E"/>
</linearGradient>
<linearGradient id="paint26_linear_1603_832" x1="65.8271" y1="152.288" x2="35.7881" y2="179.376" gradientUnits="userSpaceOnUse">
<stop stop-color="#4F52FF"/>
<stop offset="1" stop-color="#4042E2"/>
</linearGradient>
<linearGradient id="paint27_linear_1603_832" x1="50.7597" y1="155.378" x2="64.091" y2="155.378" gradientUnits="userSpaceOnUse">
<stop stop-color="#09005D"/>
<stop offset="1" stop-color="#1A0F91"/>
</linearGradient>
<linearGradient id="paint28_linear_1603_832" x1="53.401" y1="147.413" x2="52.7983" y2="160.935" gradientUnits="userSpaceOnUse">
<stop stop-color="#FEBBBA"/>
<stop offset="1" stop-color="#FF928E"/>
</linearGradient>
<linearGradient id="paint29_linear_1603_832" x1="54.3606" y1="96.8754" x2="31.4617" y2="180.107" gradientUnits="userSpaceOnUse">
<stop stop-color="#09005D"/>
<stop offset="1" stop-color="#1A0F91"/>
</linearGradient>
<linearGradient id="paint30_linear_1603_832" x1="42.5968" y1="63.7908" x2="53.9603" y2="56.0228" gradientUnits="userSpaceOnUse">
<stop stop-color="#FEBBBA"/>
<stop offset="1" stop-color="#FF928E"/>
</linearGradient>
<linearGradient id="paint31_linear_1603_832" x1="56.0274" y1="59.4897" x2="50.1277" y2="49.5341" gradientUnits="userSpaceOnUse">
<stop stop-color="#FEBBBA"/>
<stop offset="1" stop-color="#FF928E"/>
</linearGradient>
<linearGradient id="paint32_linear_1603_832" x1="42.712" y1="43.4725" x2="51.2884" y2="55.0085" gradientUnits="userSpaceOnUse">
<stop stop-color="#09005D"/>
<stop offset="1" stop-color="#1A0F91"/>
</linearGradient>
<linearGradient id="paint33_linear_1603_832" x1="52.5404" y1="61.5556" x2="46.6439" y2="51.6052" gradientUnits="userSpaceOnUse">
<stop stop-color="#FEBBBA"/>
<stop offset="1" stop-color="#FF928E"/>
</linearGradient>
<linearGradient id="paint34_linear_1603_832" x1="84.2643" y1="65.9261" x2="59.9563" y2="79.8129" gradientUnits="userSpaceOnUse">
<stop stop-color="#FEBBBA"/>
<stop offset="1" stop-color="#FF928E"/>
</linearGradient>
<linearGradient id="paint35_linear_1603_832" x1="83.8862" y1="63.1184" x2="76.3067" y2="72.2099" gradientUnits="userSpaceOnUse">
<stop stop-color="#FEBBBA"/>
<stop offset="1" stop-color="#FF928E"/>
</linearGradient>
<linearGradient id="paint36_linear_1603_832" x1="84.3876" y1="65.7931" x2="60.0796" y2="79.6799" gradientUnits="userSpaceOnUse">
<stop stop-color="#FEBBBA"/>
<stop offset="1" stop-color="#FF928E"/>
</linearGradient>
<linearGradient id="paint37_linear_1603_832" x1="95.1882" y1="84.7898" x2="20.9313" y2="69.3689" gradientUnits="userSpaceOnUse">
<stop stop-color="#FEBBBA"/>
<stop offset="1" stop-color="#FF928E"/>
</linearGradient>
<linearGradient id="paint38_linear_1603_832" x1="58.4377" y1="56.1459" x2="31.6331" y2="103.329" gradientUnits="userSpaceOnUse">
<stop stop-color="#D9D9D9"/>
<stop offset="1" stop-color="#E1473D"/>
</linearGradient>
<linearGradient id="paint39_linear_1603_832" x1="57.983" y1="55.8873" x2="31.1782" y2="103.071" gradientUnits="userSpaceOnUse">
<stop stop-color="#D9D9D9"/>
<stop offset="1" stop-color="#E9605A"/>
</linearGradient>
</defs>
</svg>
