<svg width="188" height="188" viewBox="0 0 188 188" fill="none" xmlns="http://www.w3.org/2000/svg">
<path d="M65.9361 31.1514H47.7588V88.7595H65.9361V31.1514Z" fill="#EFF3FF"/>
<path d="M65.9363 31.1514H56.8477V88.6008H65.9363V31.1514Z" fill="#EFF3FF"/>
<path d="M56.2537 25.4951H49.835V31.1509H56.2537V25.4951Z" fill="#EFF3FF"/>
<path d="M56.2536 25.4951H54.7236V31.1509H56.2536V25.4951Z" fill="#EFF3FF"/>
<path d="M46.2441 31.1504V30.8203H66.4681V31.1504" fill="#EFF3FF"/>
<path d="M52.8853 33.6172H51.3467V36.8613H52.8853V33.6172Z" fill="#EFF3FF"/>
<path d="M56.8475 38.1353C56.8475 38.1695 54.8126 38.1973 52.3035 38.1973C49.7933 38.1973 47.7588 38.1695 47.7588 38.1353C47.7588 38.1011 49.793 38.0732 52.3035 38.0732C54.8129 38.0732 56.8475 38.1011 56.8475 38.1353Z" fill="#EFF3FF"/>
<path d="M62.0532 33.6172H60.5146V36.8613H62.0532V33.6172Z" fill="#EFF3FF"/>
<path d="M66.0154 38.1353C66.0154 38.1695 63.9809 38.1973 61.4715 38.1973C58.9613 38.1973 56.9268 38.1695 56.9268 38.1353C56.9268 38.1011 58.9609 38.0732 61.4715 38.0732C63.9805 38.0732 66.0154 38.1011 66.0154 38.1353Z" fill="#EFF3FF"/>
<path d="M62.0532 40.0586H60.5146V43.3027H62.0532V40.0586Z" fill="#EFF3FF"/>
<path d="M66.0154 44.5767C66.0154 44.6109 63.9809 44.6387 61.4715 44.6387C58.9613 44.6387 56.9268 44.6109 56.9268 44.5767C56.9268 44.5425 58.9609 44.5146 61.4715 44.5146C63.9805 44.5146 66.0154 44.5425 66.0154 44.5767Z" fill="#EFF3FF"/>
<path d="M62.0532 46.6943H60.5146V49.9385H62.0532V46.6943Z" fill="#EFF3FF"/>
<path d="M66.0154 51.2124C66.0154 51.2466 63.9809 51.2745 61.4715 51.2745C58.9613 51.2745 56.9268 51.2466 56.9268 51.2124C56.9268 51.1782 58.9609 51.1504 61.4715 51.1504C63.9805 51.1504 66.0154 51.1782 66.0154 51.2124Z" fill="#EFF3FF"/>
<path d="M62.0532 53.3301H60.5146V56.5742H62.0532V53.3301Z" fill="#EFF3FF"/>
<path d="M66.0154 57.8482C66.0154 57.8824 63.9809 57.9102 61.4715 57.9102C58.9613 57.9102 56.9268 57.8824 56.9268 57.8482C56.9268 57.814 58.9609 57.7861 61.4715 57.7861C63.9805 57.7861 66.0154 57.814 66.0154 57.8482Z" fill="#EFF3FF"/>
<path d="M62.0532 59.7754H60.5146V63.0195H62.0532V59.7754Z" fill="#EFF3FF"/>
<path d="M66.0154 64.2935C66.0154 64.3277 63.9809 64.3555 61.4715 64.3555C58.9613 64.3555 56.9268 64.3277 56.9268 64.2935C56.9268 64.2593 58.9609 64.2314 61.4715 64.2314C63.9805 64.2314 66.0154 64.2593 66.0154 64.2935Z" fill="#EFF3FF"/>
<path d="M62.0532 66.248H60.5146V69.4922H62.0532V66.248Z" fill="#EFF3FF"/>
<path d="M62.0532 72.8047H60.5146V76.0492H62.0532V72.8047Z" fill="#EFF3FF"/>
<path d="M66.0154 70.7661C66.0154 70.8004 63.9809 70.8282 61.4715 70.8282C58.9613 70.8282 56.9268 70.8004 56.9268 70.7661C56.9268 70.7319 58.9609 70.7041 61.4715 70.7041C63.9805 70.7041 66.0154 70.7319 66.0154 70.7661Z" fill="#EFF3FF"/>
<path d="M52.8853 40.1572H51.3467V43.4014H52.8853V40.1572Z" fill="#EFF3FF"/>
<path d="M56.8475 44.6743C56.8475 44.7086 54.8126 44.7364 52.3035 44.7364C49.7933 44.7364 47.7588 44.7086 47.7588 44.6743C47.7588 44.6401 49.793 44.6123 52.3035 44.6123C54.8129 44.6127 56.8475 44.6405 56.8475 44.6743Z" fill="#EFF3FF"/>
<path d="M52.8853 46.6963H51.3467V49.9408H52.8853V46.6963Z" fill="#EFF3FF"/>
<path d="M56.8475 51.2144C56.8475 51.2486 54.8126 51.2764 52.3035 51.2764C49.7933 51.2764 47.7588 51.2486 47.7588 51.2144C47.7588 51.1802 49.793 51.1523 52.3035 51.1523C54.8129 51.1523 56.8475 51.1802 56.8475 51.2144Z" fill="#EFF3FF"/>
<path d="M52.8853 53.2363H51.3467V56.4805H52.8853V53.2363Z" fill="#EFF3FF"/>
<path d="M56.8475 57.7534C56.8475 57.7877 54.8126 57.8155 52.3035 57.8155C49.7933 57.8155 47.7588 57.7877 47.7588 57.7534C47.7588 57.7192 49.793 57.6914 52.3035 57.6914C54.8129 57.6918 56.8475 57.7196 56.8475 57.7534Z" fill="#EFF3FF"/>
<path d="M52.8853 59.7754H51.3467V63.0195H52.8853V59.7754Z" fill="#EFF3FF"/>
<path d="M56.8475 64.2935C56.8475 64.3277 54.8126 64.3555 52.3035 64.3555C49.7933 64.3555 47.7588 64.3277 47.7588 64.2935C47.7588 64.2593 49.793 64.2314 52.3035 64.2314C54.8129 64.2314 56.8475 64.2593 56.8475 64.2935Z" fill="#EFF3FF"/>
<path d="M52.8853 66.3154H51.3467V69.5599H52.8853V66.3154Z" fill="#EFF3FF"/>
<path d="M56.8475 70.8335C56.8475 70.8677 54.8126 70.8956 52.3035 70.8956C49.7933 70.8956 47.7588 70.8677 47.7588 70.8335C47.7588 70.7993 49.793 70.7715 52.3035 70.7715C54.8129 70.7715 56.8475 70.7993 56.8475 70.8335Z" fill="#EFF3FF"/>
<path d="M52.8853 72.8545H51.3467V76.0986H52.8853V72.8545Z" fill="#EFF3FF"/>
<path d="M132.505 43.3652H114.328V100.973H132.505V43.3652Z" fill="#EFF3FF"/>
<path d="M132.506 43.3652H123.417V100.815H132.506V43.3652Z" fill="#EFF3FF"/>
<path d="M122.823 37.71H116.404V43.3658H122.823V37.71Z" fill="#EFF3FF"/>
<path d="M122.823 37.71H121.293V43.3658H122.823V37.71Z" fill="#EFF3FF"/>
<path d="M112.813 43.3649V43.0352H133.037V43.3649" fill="#EFF3FF"/>
<path d="M119.456 45.832H117.917V49.0762H119.456V45.832Z" fill="#EFF3FF"/>
<path d="M123.417 50.3491C123.417 50.3834 121.382 50.4112 118.873 50.4112C116.363 50.4112 114.328 50.3834 114.328 50.3491C114.328 50.3149 116.362 50.2871 118.873 50.2871C121.382 50.2871 123.417 50.3149 123.417 50.3491Z" fill="#EFF3FF"/>
<path d="M128.623 45.832H127.084V49.0762H128.623V45.832Z" fill="#EFF3FF"/>
<path d="M132.585 50.3501C132.585 50.3843 130.55 50.4122 128.041 50.4122C125.531 50.4122 123.496 50.3843 123.496 50.3501C123.496 50.3159 125.53 50.2881 128.041 50.2881C130.55 50.2881 132.585 50.3159 132.585 50.3501Z" fill="#EFF3FF"/>
<path d="M128.623 52.2734H127.084V55.5179H128.623V52.2734Z" fill="#EFF3FF"/>
<path d="M132.585 56.7915C132.585 56.8257 130.55 56.8536 128.041 56.8536C125.531 56.8536 123.496 56.8257 123.496 56.7915C123.496 56.7573 125.53 56.7295 128.041 56.7295C130.55 56.7299 132.585 56.7573 132.585 56.7915Z" fill="#EFF3FF"/>
<path d="M128.623 58.9092H127.084V62.1533H128.623V58.9092Z" fill="#EFF3FF"/>
<path d="M132.585 63.4273C132.585 63.4615 130.55 63.4893 128.041 63.4893C125.531 63.4893 123.496 63.4615 123.496 63.4273C123.496 63.3931 125.53 63.3652 128.041 63.3652C130.55 63.3652 132.585 63.3931 132.585 63.4273Z" fill="#EFF3FF"/>
<path d="M128.623 65.5449H127.084V68.7891H128.623V65.5449Z" fill="#EFF3FF"/>
<path d="M132.585 70.063C132.585 70.0972 130.55 70.1251 128.041 70.1251C125.531 70.1251 123.496 70.0972 123.496 70.063C123.496 70.0288 125.53 70.001 128.041 70.001C130.55 70.001 132.585 70.0288 132.585 70.063Z" fill="#EFF3FF"/>
<path d="M128.623 71.9902H127.084V75.2344H128.623V71.9902Z" fill="#EFF3FF"/>
<path d="M132.585 76.5083C132.585 76.5425 130.55 76.5704 128.041 76.5704C125.531 76.5704 123.496 76.5425 123.496 76.5083C123.496 76.4741 125.53 76.4463 128.041 76.4463C130.55 76.4467 132.585 76.4745 132.585 76.5083Z" fill="#EFF3FF"/>
<path d="M128.623 78.4619H127.084V81.706H128.623V78.4619Z" fill="#EFF3FF"/>
<path d="M128.623 85.0186H127.084V88.2627H128.623V85.0186Z" fill="#EFF3FF"/>
<path d="M132.585 82.98C132.585 83.0142 130.55 83.042 128.041 83.042C125.531 83.042 123.496 83.0142 123.496 82.98C123.496 82.9458 125.53 82.918 128.041 82.918C130.55 82.918 132.585 82.9458 132.585 82.98Z" fill="#EFF3FF"/>
<path d="M119.456 52.3721H117.917V55.6162H119.456V52.3721Z" fill="#EFF3FF"/>
<path d="M123.417 56.8892C123.417 56.9234 121.382 56.9512 118.873 56.9512C116.363 56.9512 114.328 56.9234 114.328 56.8892C114.328 56.855 116.362 56.8271 118.873 56.8271C121.382 56.8271 123.417 56.855 123.417 56.8892Z" fill="#EFF3FF"/>
<path d="M119.456 58.9111H117.917V62.1556H119.456V58.9111Z" fill="#EFF3FF"/>
<path d="M123.417 63.4283C123.417 63.4625 121.382 63.4903 118.873 63.4903C116.363 63.4903 114.328 63.4625 114.328 63.4283C114.328 63.394 116.362 63.3662 118.873 63.3662C121.382 63.3666 123.417 63.394 123.417 63.4283Z" fill="#EFF3FF"/>
<path d="M119.456 65.4512H117.917V68.6957H119.456V65.4512Z" fill="#EFF3FF"/>
<path d="M123.417 69.9683C123.417 70.0025 121.382 70.0303 118.873 70.0303C116.363 70.0303 114.328 70.0025 114.328 69.9683C114.328 69.9341 116.362 69.9062 118.873 69.9062C121.382 69.9062 123.417 69.9341 123.417 69.9683Z" fill="#EFF3FF"/>
<path d="M119.456 71.9902H117.917V75.2344H119.456V71.9902Z" fill="#EFF3FF"/>
<path d="M123.417 76.5083C123.417 76.5425 121.382 76.5704 118.873 76.5704C116.363 76.5704 114.328 76.5425 114.328 76.5083C114.328 76.4741 116.362 76.4463 118.873 76.4463C121.382 76.4467 123.417 76.4745 123.417 76.5083Z" fill="#EFF3FF"/>
<path d="M119.456 78.5303H117.917V81.7748H119.456V78.5303Z" fill="#EFF3FF"/>
<path d="M123.417 83.0474C123.417 83.0816 121.382 83.1094 118.873 83.1094C116.363 83.1094 114.328 83.0816 114.328 83.0474C114.328 83.0132 116.362 82.9854 118.873 82.9854C121.382 82.9854 123.417 83.0132 123.417 83.0474Z" fill="#EFF3FF"/>
<path d="M119.456 85.0693H117.917V88.3135H119.456V85.0693Z" fill="#EFF3FF"/>
<path d="M155.2 65.7168H125.768V104.537H155.2V65.7168Z" fill="#EFF3FF"/>
<path d="M155.2 65.7168H141.399V104.537H155.2V65.7168Z" fill="#EFF3FF"/>
<path d="M134.585 70.9727H131.938V77.4023H134.585V70.9727Z" fill="#EFF3FF"/>
<path d="M134.585 96.1357H131.938V102.565H134.585V96.1357Z" fill="#EFF3FF"/>
<path d="M141.399 79.9258C141.399 79.998 137.9 80.0566 133.584 80.0566C129.266 80.0566 125.768 79.998 125.768 79.9258C125.768 79.8536 129.267 79.7949 133.584 79.7949C137.9 79.7949 141.399 79.8536 141.399 79.9258Z" fill="#EFF3FF"/>
<path d="M134.585 83.6494H131.938V90.079H134.585V83.6494Z" fill="#EFF3FF"/>
<path d="M141.399 92.6016C141.399 92.6737 137.9 92.7324 133.584 92.7324C129.266 92.7324 125.768 92.6737 125.768 92.6016C125.768 92.5294 129.267 92.4707 133.584 92.4707C137.9 92.4711 141.399 92.5297 141.399 92.6016Z" fill="#EFF3FF"/>
<path d="M146.977 70.9727H144.331V77.4023H146.977V70.9727Z" fill="#EFF3FF"/>
<path d="M152.719 70.9727H150.072V77.4023H152.719V70.9727Z" fill="#EFF3FF"/>
<path d="M146.977 83.1729H144.331V89.6021H146.977V83.1729Z" fill="#EFF3FF"/>
<path d="M152.719 83.1729H150.072V89.6021H152.719V83.1729Z" fill="#EFF3FF"/>
<path d="M146.977 95.3721H144.331V101.801H146.977V95.3721Z" fill="#EFF3FF"/>
<path d="M152.719 95.3721H150.072V101.801H152.719V95.3721Z" fill="#EFF3FF"/>
<path d="M157.413 64.3652H123.556V65.7651H157.413V64.3652Z" fill="#EFF3FF"/>
<path d="M155.406 65.8975C155.406 65.9696 148.827 66.0283 140.714 66.0283C132.598 66.0283 126.021 65.9696 126.021 65.8975C126.021 65.8253 132.598 65.7666 140.714 65.7666C148.827 65.7666 155.406 65.8253 155.406 65.8975Z" fill="#EFF3FF"/>
<path d="M59.193 105.312H32.4443L32.3281 63.0381H59.0764L59.193 105.312Z" fill="#EFF3FF"/>
<path d="M59.0765 63.0381H45.7021V105.312H59.0765V63.0381Z" fill="#EFF3FF"/>
<path d="M44.8273 54.7158H35.3818V63.0382H44.8273V54.7158Z" fill="#EFF3FF"/>
<path d="M44.8273 54.7158H42.5762V63.0382H44.8273V54.7158Z" fill="#EFF3FF"/>
<path d="M59.859 62.5527H30.0986V63.0382H59.859V62.5527Z" fill="#EFF3FF"/>
<path d="M39.8717 66.668H37.6074V71.442H39.8717V66.668Z" fill="#EFF3FF"/>
<path d="M45.7015 73.3156C45.7015 73.366 42.7074 73.4066 39.0147 73.4066C35.3209 73.4066 32.3271 73.366 32.3271 73.3156C32.3271 73.2652 35.3205 73.2246 39.0147 73.2246C42.7074 73.2242 45.7015 73.2652 45.7015 73.3156Z" fill="#EFF3FF"/>
<path d="M53.3629 66.668H51.0986V71.442H53.3629V66.668Z" fill="#EFF3FF"/>
<path d="M59.1927 73.3156C59.1927 73.366 56.1986 73.4066 52.5059 73.4066C48.8121 73.4066 45.8184 73.366 45.8184 73.3156C45.8184 73.2652 48.8117 73.2246 52.5059 73.2246C56.1982 73.2242 59.1927 73.2652 59.1927 73.3156Z" fill="#EFF3FF"/>
<path d="M53.3629 76.1465H51.0986V80.9206H53.3629V76.1465Z" fill="#EFF3FF"/>
<path d="M59.1927 82.7941C59.1927 82.8445 56.1986 82.8851 52.5059 82.8851C48.8121 82.8851 45.8184 82.8445 45.8184 82.7941C45.8184 82.7437 48.8117 82.7031 52.5059 82.7031C56.1982 82.7031 59.1927 82.7441 59.1927 82.7941Z" fill="#EFF3FF"/>
<path d="M53.3629 85.9111H51.0986V90.6852H53.3629V85.9111Z" fill="#EFF3FF"/>
<path d="M59.1927 92.5588C59.1927 92.6092 56.1986 92.6498 52.5059 92.6498C48.8121 92.6498 45.8184 92.6088 45.8184 92.5588C45.8184 92.5084 48.8117 92.4678 52.5059 92.4678C56.1982 92.4674 59.1927 92.5084 59.1927 92.5588Z" fill="#EFF3FF"/>
<path d="M53.3629 95.6758H51.0986V100.45H53.3629V95.6758Z" fill="#EFF3FF"/>
<path d="M59.1927 102.323C59.1927 102.374 56.1986 102.415 52.5059 102.415C48.8121 102.415 45.8184 102.374 45.8184 102.323C45.8184 102.273 48.8117 102.232 52.5059 102.232C56.1982 102.232 59.1927 102.273 59.1927 102.323Z" fill="#EFF3FF"/>
<path d="M39.8717 76.291H37.6074V81.0651H39.8717V76.291Z" fill="#EFF3FF"/>
<path d="M45.7015 82.9386C45.7015 82.989 42.7074 83.03 39.0147 83.03C35.3209 83.03 32.3271 82.989 32.3271 82.9386C32.3271 82.8883 35.3205 82.8477 39.0147 82.8477C42.7074 82.8477 45.7015 82.8883 45.7015 82.9386Z" fill="#EFF3FF"/>
<path d="M39.8717 85.9141H37.6074V90.6881H39.8717V85.9141Z" fill="#EFF3FF"/>
<path d="M45.7015 92.5617C45.7015 92.6121 42.7074 92.6527 39.0147 92.6527C35.3209 92.6527 32.3271 92.6117 32.3271 92.5617C32.3271 92.5117 35.3205 92.4707 39.0147 92.4707C42.7074 92.4703 45.7015 92.5113 45.7015 92.5617Z" fill="#EFF3FF"/>
<path d="M39.8717 95.5371H37.6074V100.311H39.8717V95.5371Z" fill="#EFF3FF"/>
<path d="M45.7015 102.185C45.7015 102.235 42.7074 102.276 39.0147 102.276C35.3209 102.276 32.3271 102.235 32.3271 102.185C32.3271 102.134 35.3205 102.094 39.0147 102.094C42.7074 102.094 45.7015 102.134 45.7015 102.185Z" fill="#EFF3FF"/>
<path d="M165.124 54.4927C165.266 53.4651 163.815 52.6199 162.726 52.5323C162.206 52.4905 161.666 52.5699 161.174 52.3984C160.107 52.0265 159.681 50.6485 158.64 50.2097C157.863 49.8815 156.967 50.1736 156.212 50.5534C155.458 50.9331 154.712 51.4107 153.87 51.4648C153.137 51.5118 152.341 51.2399 151.7 51.5979C151.222 51.8649 150.971 52.4153 150.531 52.7402C150.1 53.0579 149.538 53.1252 149.003 53.1545C148.469 53.1835 147.915 53.1891 147.428 53.4121C146.941 53.6351 146.539 54.1498 146.64 54.6755L165.124 54.4927Z" fill="#EFF3FF"/>
<path d="M119.872 25.2094C120.093 23.6012 117.824 22.2781 116.118 22.1405C115.305 22.075 114.46 22.1991 113.689 21.9306C112.02 21.3486 111.353 19.1919 109.724 18.5049C108.506 17.9913 107.104 18.4485 105.924 19.0426C104.743 19.6367 103.576 20.3845 102.257 20.4691C101.11 20.5425 99.8639 20.1172 98.86 20.6774C98.1118 21.0952 97.72 21.957 97.0308 22.4657C96.3562 22.9631 95.4764 23.0684 94.6394 23.1139C93.8024 23.1594 92.9361 23.1681 92.174 23.517C91.4118 23.8659 90.7813 24.6717 90.9396 25.4948L119.872 25.2094Z" fill="#EFF3FF"/>
<path d="M42.5642 47.4505C42.7406 46.1683 40.9312 45.1137 39.5712 45.0039C38.9226 44.9516 38.2492 45.0509 37.6348 44.8366C36.3038 44.3726 35.7721 42.6531 34.4734 42.1053C33.5026 41.6958 32.3848 42.0602 31.4436 42.5339C30.5025 43.0077 29.5723 43.6037 28.5206 43.671C27.6058 43.7296 26.6124 43.3905 25.8123 43.8371C25.2159 44.1703 24.9035 44.8572 24.3538 45.2626C23.8161 45.6592 23.1145 45.7431 22.4475 45.7796C21.7804 45.816 21.0897 45.8228 20.4821 46.1007C19.8745 46.3789 19.3718 47.0211 19.4981 47.6776L42.5642 47.4505Z" fill="#EFF3FF"/>
<path d="M29.2642 75.7307C25.0026 75.8296 21.5277 79.3027 21.4261 83.5643C21.3829 85.3894 21.9503 87.0792 22.9358 88.4474L22.9335 88.4482L23.0117 88.5546C23.0155 88.5595 23.0192 88.5647 23.0226 88.5696L28.7093 96.3043C29.2097 96.9853 30.2343 96.9638 30.7058 96.2626L35.8457 88.6211C36.8184 87.1378 37.4855 85.5872 37.4855 83.7595C37.4862 79.2606 33.7868 75.6258 29.2642 75.7307ZM29.4552 89.5999C26.1205 89.5999 23.4174 86.8968 23.4174 83.5621C23.4174 80.2273 26.1205 77.5242 29.4552 77.5242C32.79 77.5242 35.493 80.2273 35.493 83.5621C35.493 86.8968 32.7896 89.5999 29.4552 89.5999Z" fill="#FF725E"/>
<g opacity="0.3">
<path d="M29.2642 75.7307C25.0026 75.8296 21.5277 79.3027 21.4261 83.5643C21.3829 85.3894 21.9503 87.0792 22.9358 88.4474L22.9335 88.4482L23.0117 88.5546C23.0155 88.5595 23.0192 88.5647 23.0226 88.5696L28.7093 96.3043C29.2097 96.9853 30.2343 96.9638 30.7058 96.2626L35.8457 88.6211C36.8184 87.1378 37.4855 85.5872 37.4855 83.7595C37.4862 79.2606 33.7868 75.6258 29.2642 75.7307ZM29.4552 89.5999C26.1205 89.5999 23.4174 86.8968 23.4174 83.5621C23.4174 80.2273 26.1205 77.5242 29.4552 77.5242C32.79 77.5242 35.493 80.2273 35.493 83.5621C35.493 86.8968 32.7896 89.5999 29.4552 89.5999Z" fill="black"/>
</g>
<path d="M28.7887 75.7307C24.5271 75.8296 21.0521 79.3027 20.9506 83.5643C20.907 85.3894 21.4747 87.0792 22.4602 88.4474L22.458 88.4482L22.5362 88.5546C22.5399 88.5595 22.5437 88.5647 22.5471 88.5696L28.2337 96.3043C28.7342 96.9853 29.7588 96.9638 30.2303 96.2626L35.3702 88.6211C36.3429 87.1378 37.0099 85.5872 37.0099 83.7595C37.0107 79.2606 33.3116 75.6258 28.7887 75.7307ZM28.9797 88.5113C26.4541 88.5113 24.4068 86.464 24.4068 83.9384C24.4068 81.4128 26.4541 79.3655 28.9797 79.3655C31.5053 79.3655 33.5526 81.4128 33.5526 83.9384C33.5522 86.464 31.5049 88.5113 28.9797 88.5113Z" fill="#190482"/>
<path d="M155.236 68.1179C151.988 68.1931 149.34 70.8401 149.263 74.088C149.229 75.4789 149.662 76.7667 150.413 77.8093L150.412 77.8097L150.471 77.8909C150.474 77.8947 150.477 77.8984 150.48 77.9026L154.813 83.7971C155.195 84.316 155.976 84.2998 156.335 83.7651L160.252 77.9417C160.993 76.811 161.502 75.6296 161.502 74.2366C161.502 70.8082 158.683 68.0378 155.236 68.1179ZM155.381 78.6876C152.84 78.6876 150.78 76.6275 150.78 74.0862C150.78 71.5448 152.84 69.4847 155.381 69.4847C157.923 69.4847 159.983 71.5448 159.983 74.0862C159.983 76.6275 157.923 78.6876 155.381 78.6876Z" fill="#190482"/>
<g opacity="0.3">
<path d="M155.236 68.1179C151.988 68.1931 149.34 70.8401 149.263 74.088C149.229 75.4789 149.662 76.7667 150.413 77.8093L150.412 77.8097L150.471 77.8909C150.474 77.8947 150.477 77.8984 150.48 77.9026L154.813 83.7971C155.195 84.316 155.976 84.2998 156.335 83.7651L160.252 77.9417C160.993 76.811 161.502 75.6296 161.502 74.2366C161.502 70.8082 158.683 68.0378 155.236 68.1179ZM155.381 78.6876C152.84 78.6876 150.78 76.6275 150.78 74.0862C150.78 71.5448 152.84 69.4847 155.381 69.4847C157.923 69.4847 159.983 71.5448 159.983 74.0862C159.983 76.6275 157.923 78.6876 155.381 78.6876Z" fill="black"/>
</g>
<path d="M154.873 68.1179C151.625 68.1931 148.977 70.8401 148.899 74.088C148.866 75.4789 149.299 76.7667 150.05 77.8093L150.048 77.8097L150.108 77.8909C150.111 77.8947 150.114 77.8984 150.116 77.9026L154.45 83.7971C154.832 84.316 155.612 84.2998 155.972 83.7651L159.889 77.9417C160.63 76.811 161.139 75.6296 161.139 74.2366C161.139 70.8082 158.32 68.0378 154.873 68.1179ZM155.018 77.8582C153.094 77.8582 151.533 76.2978 151.533 74.3734C151.533 72.4487 153.094 70.8886 155.018 70.8886C156.943 70.8886 158.503 72.449 158.503 74.3734C158.503 76.2978 156.943 77.8582 155.018 77.8582Z" fill="#190482"/>
<path d="M33.6567 104.6L6.80273 171.288L57.154 163.008L94.0787 171.288L131.898 163.008L182.474 172.655L155.396 104.6L125.185 96.9912L94.6382 102.81L63.4201 96.9912L33.6567 104.6Z" fill="white"/>
<path d="M33.6569 104.6C33.6569 104.6 33.8212 104.553 34.1502 104.467C34.4811 104.381 34.9722 104.254 35.62 104.085C36.9221 103.749 38.854 103.251 41.38 102.6C46.4413 101.3 53.8827 99.3893 63.4083 96.943L63.4188 96.9404L63.4297 96.9423C72.0337 98.5406 82.5945 100.503 94.6509 102.742H94.6261C103.77 100.997 114.08 99.0291 125.17 96.9126L125.188 96.9092L125.205 96.9133C134.587 99.2735 144.752 101.831 155.418 104.514L155.461 104.525L155.478 104.567C163.753 125.357 172.902 148.344 182.565 172.619L182.63 172.783L182.456 172.75C174.14 171.164 165.351 169.488 156.439 167.788C148.136 166.204 139.94 164.64 131.881 163.103L131.92 163.102C118.925 165.947 106.281 168.713 94.0997 171.379L94.0794 171.384L94.0591 171.379C81.1912 168.491 68.8483 165.721 57.1362 163.093L57.1693 163.094C38.6686 166.13 21.7321 168.91 6.81541 171.358L6.68945 171.379L6.7372 171.261C15.0434 150.673 21.7693 134.002 26.4193 122.476C28.746 116.719 30.5534 112.248 31.7796 109.214C32.3932 107.701 32.8617 106.546 33.1771 105.769C33.4919 104.993 33.6569 104.6 33.6569 104.6C33.6569 104.6 33.5009 105.003 33.1899 105.784C32.8779 106.565 32.4142 107.724 31.8066 109.244C30.5876 112.283 28.7907 116.762 26.4776 122.528C21.8449 134.054 15.1442 150.726 6.86918 171.314L6.79097 171.217C21.7061 168.759 38.6412 165.969 57.14 162.921L57.1569 162.919L57.1735 162.922C68.8866 165.547 81.2307 168.313 94.0993 171.196H94.0587C106.24 168.528 118.883 165.759 131.878 162.913L131.897 162.908L131.917 162.912C139.977 164.45 148.172 166.013 156.475 167.596C165.387 169.297 174.175 170.973 182.492 172.56L182.383 172.691C172.727 148.414 163.584 125.424 155.314 104.632L155.375 104.685C144.71 101.996 134.547 99.4336 125.166 97.0682L125.2 97.0694C114.108 99.1776 103.796 101.138 94.6509 102.876L94.6385 102.878L94.6261 102.876C82.5723 100.622 72.0138 98.6478 63.4117 97.0397L63.4327 97.0389C53.909 99.4622 46.4695 101.355 41.4093 102.643C38.8781 103.285 36.942 103.775 35.6369 104.106C34.9853 104.27 34.4916 104.394 34.1589 104.478C33.8273 104.56 33.6569 104.6 33.6569 104.6Z" fill="#263238"/>
<path d="M35.2234 106.389L11.502 167.93L56.9303 160.545L94.6382 169.273L131.898 160.322L178.222 169.273L153.829 106.389L125.632 99.4521L94.6382 105.27L62.9726 99.4521L35.2234 106.389Z" fill="white"/>
<path d="M14.1377 161.092L50.2461 152.73L48.9128 144.951L51.9129 143.062L47.2456 124.895L32.8065 112.659L14.1377 161.092Z" fill="#455A64"/>
<path d="M11.502 167.93L13.2628 163.363L73.8048 149.297L77.0933 158.348L76.0273 160.175L64.6559 162.333L56.9303 160.545L11.502 167.93Z" fill="#D9D9D9"/>
<path d="M77.0938 148.421L79.496 157.376L86.4674 160.406L96.3889 155.998L117.198 149.937L110.705 140.155L77.0938 148.421Z" fill="#D9D9D9"/>
<path d="M52.9101 151.738L64.1597 149.297L61.9149 141.988L53.7196 143.969L51.5381 145.508L52.9101 151.738Z" fill="#D9D9D9"/>
<path d="M50.6133 127.514L54.6982 140.917L61.0807 139.513L59.9321 134.363L73.9734 131.215L50.6133 127.514Z" fill="#455A64"/>
<path d="M33.8691 109.903L51.5378 124.088L74.9945 128.535L100.014 122.315L88.5929 104.16L62.9727 99.4521L35.2235 106.389L33.8691 109.903Z" fill="#D9D9D9"/>
<path d="M92.0098 104.788L128.691 161.093L131.899 160.322L96.3969 104.941L94.6388 105.271L92.0098 104.788Z" fill="#D9D9D9"/>
<path d="M62.2939 135.781L66.9421 149.297L108.202 138.756L100.566 125.757L62.2939 135.781Z" fill="#D9D9D9"/>
<path d="M85.2471 167.1L85.6486 166.503L88.3585 162.475L94.8618 160.407L99.3339 157.038L118.726 151.738L124.749 162.04L94.6381 169.274" fill="#D9D9D9"/>
<path d="M119.597 100.585L129.316 111.396L153.829 106.389L125.632 99.4521L119.597 100.585Z" fill="#D9D9D9"/>
<path d="M158.988 119.69L140.984 124.692L131.898 112.659L154.444 107.975L158.988 119.69Z" fill="#D9D9D9"/>
<path d="M98.3223 104.58L117.199 131.694L138.985 125.443L117.199 101.036L98.3223 104.58Z" fill="#D9D9D9"/>
<path d="M151.097 164.032L172.879 155.499L178.222 169.273L151.097 164.032Z" fill="#D9D9D9"/>
<path d="M128.315 130.072L140.151 126.987L152.653 141.989L140.484 146.029L128.315 130.072Z" fill="#455A64"/>
<path d="M142.818 125.757L155.987 140.856L165.908 137.527L159.385 120.712L142.818 125.757Z" fill="#D9D9D9"/>
<path d="M152.653 160.506L142.818 146.863L166.59 139.285L171.42 151.738L168.322 154.858L152.653 160.506Z" fill="#455A64"/>
<path d="M118.355 133.688L136.426 161.093L147.553 163.347L149.653 162.386L126.755 131.156L118.355 133.688Z" fill="#D9D9D9"/>
<path d="M44.2978 154.108L39.7956 132.94L23.9201 135.714L14.1377 161.093L44.2978 154.108Z" fill="#D9D9D9"/>
<path d="M58.8946 100.472V110.163L62.2932 110.592L71.7831 121.648L79.9408 120.711L83.8241 126.34L74.9945 128.535L51.5378 124.088L33.8691 109.903L35.2235 106.39L58.8946 100.472Z" fill="#455A64"/>
<path d="M108.512 102.75L121.841 122.201L133.322 119.099L117.198 101.036L108.512 102.75Z" fill="#D9D9D9"/>
<path d="M147.64 122.843L142.818 115.303L155.858 111.618L158.989 119.69L147.64 122.843Z" fill="#D9D9D9"/>
<path d="M128.315 148.793L134.627 146.612L146.869 163.209L136.426 161.093L128.315 148.793Z" fill="#D9D9D9"/>
<path d="M70.0898 163.592L75.9603 162.877L77.9159 160.014L85.2472 162.319L83.3296 166.656L70.0898 163.592Z" fill="#455A64"/>
<path d="M35.224 106.39C35.224 106.39 35.8421 106.227 37.0532 105.92C38.2673 105.614 40.068 105.16 42.4225 104.565C47.1417 103.38 54.0793 101.636 62.9611 99.4048L62.9713 99.4022L62.9818 99.4041C71.6264 100.987 82.3413 102.949 94.6508 105.203H94.626C103.894 103.46 114.353 101.492 125.618 99.3725L125.635 99.3691L125.652 99.3733C134.465 101.539 143.938 103.867 153.85 106.303L153.895 106.314L153.912 106.357C161.379 125.6 169.625 146.85 178.313 169.237L178.376 169.401L178.203 169.368C170.78 167.933 162.923 166.415 154.962 164.877C147.158 163.369 139.456 161.88 131.88 160.416L131.921 160.415C119.096 163.495 106.635 166.487 94.6598 169.363L94.6384 169.368L94.6169 169.363C81.4058 166.303 68.7966 163.382 56.9109 160.629L56.944 160.63C40.2556 163.337 24.9968 165.812 11.5134 167.999L11.3916 168.019L11.436 167.904C18.7785 148.895 24.7212 133.51 28.8286 122.876C30.8842 117.566 32.4803 113.442 33.5636 110.643C34.1058 109.248 34.5194 108.184 34.798 107.466C35.0777 106.752 35.224 106.39 35.224 106.39C35.224 106.39 35.0867 106.762 34.8126 107.482C34.537 108.203 34.1283 109.272 33.5921 110.674C32.516 113.477 30.9304 117.609 28.8884 122.929C24.7979 133.563 18.8804 148.947 11.5687 167.956L11.4912 167.861C24.9731 165.665 40.2304 163.179 56.9169 160.461L56.9338 160.458L56.9504 160.462C68.8373 163.211 81.4475 166.127 94.6598 169.182H94.6169C106.591 166.304 119.052 163.309 131.876 160.227L131.897 160.222L131.918 160.227C139.494 161.69 147.196 163.179 155 164.686C162.961 166.225 170.818 167.743 178.241 169.178L178.132 169.309C169.451 146.92 161.21 125.667 153.748 106.422L153.809 106.476C143.898 104.035 134.426 101.702 125.614 99.5312L125.648 99.5319C114.381 101.642 103.921 103.602 94.6519 105.338L94.6395 105.34L94.6271 105.338C82.3206 103.069 71.6076 101.094 62.9653 99.5004L62.9859 99.4996C54.1063 101.709 47.1703 103.434 42.4526 104.608C40.0924 105.192 38.2876 105.639 37.0709 105.94C35.8538 106.241 35.224 106.39 35.224 106.39Z" fill="#263238"/>
<g opacity="0.2">
<path d="M94.079 171.288L94.6385 102.81L63.4203 96.9912L57.1543 163.008L94.079 171.288Z" fill="black"/>
</g>
<g opacity="0.2">
<path d="M125.186 96.9912L131.899 163.008L182.474 172.655L155.396 104.6L125.186 96.9912Z" fill="black"/>
</g>
<path d="M94.8793 38.0104C73.0675 38.5165 55.2831 56.2926 54.7638 78.104C54.5416 87.445 57.4462 96.093 62.491 103.096L62.4801 103.1L62.8806 103.645C62.8997 103.67 62.9182 103.696 62.937 103.722L92.0416 143.309C94.6037 146.794 99.8462 146.684 102.261 143.095L128.567 103.985C133.546 96.393 136.96 88.4575 136.96 79.1034C136.96 56.0772 118.027 37.4734 94.8793 38.0104ZM95.8558 108.994C78.7887 108.994 64.9531 95.1586 64.9531 78.0916C64.9531 61.0246 78.7887 47.1889 95.8558 47.1889C112.923 47.1889 126.758 61.0246 126.758 78.0916C126.758 95.1586 112.923 108.994 95.8558 108.994Z" fill="#190482"/>
<g opacity="0.3">
<path d="M94.8793 38.0104C73.0675 38.5165 55.2831 56.2926 54.7638 78.104C54.5416 87.445 57.4462 96.093 62.491 103.096L62.4801 103.1L62.8806 103.645C62.8997 103.67 62.9182 103.696 62.937 103.722L92.0416 143.309C94.6037 146.794 99.8462 146.684 102.261 143.095L128.567 103.985C133.546 96.393 136.96 88.4575 136.96 79.1034C136.96 56.0772 118.027 37.4734 94.8793 38.0104ZM95.8558 108.994C78.7887 108.994 64.9531 95.1586 64.9531 78.0916C64.9531 61.0246 78.7887 47.1889 95.8558 47.1889C112.923 47.1889 126.758 61.0246 126.758 78.0916C126.758 95.1586 112.923 108.994 95.8558 108.994Z" fill="black"/>
</g>
<path d="M92.4428 38.0104C70.6314 38.5165 52.8466 56.2926 52.3273 78.104C52.1051 87.445 55.0097 96.093 60.0545 103.096L60.0436 103.1L60.444 103.645C60.4632 103.67 60.4816 103.696 60.5004 103.722L89.6051 143.309C92.1671 146.794 97.4097 146.684 99.8236 143.095L126.13 103.985C131.109 96.393 134.523 88.4575 134.523 79.1034C134.524 56.0772 115.59 37.4734 92.4428 38.0104ZM93.4196 108.994C76.3526 108.994 62.5169 95.1586 62.5169 78.0916C62.5169 61.0246 76.3526 47.1889 93.4196 47.1889C110.487 47.1889 124.322 61.0246 124.322 78.0916C124.322 95.1586 110.487 108.994 93.4196 108.994Z" fill="#190482"/>
<g opacity="0.3">
<path d="M111.197 101.399C110.703 101.959 78.0237 110.588 77.5293 111.148C83.7965 113.059 91.4526 114.723 97.9938 114.344C101.682 114.13 105.528 113.472 108.444 111.204C111.36 108.934 112.973 104.639 111.197 101.399Z" fill="black"/>
</g>
</svg>
